<?xml version="1.0" encoding="utf-8" standalone="no"?>
<!DOCTYPE svg PUBLIC "-//W3C//DTD SVG 1.1//EN"
  "http://www.w3.org/Graphics/SVG/1.1/DTD/svg11.dtd">
<svg xmlns:xlink="http://www.w3.org/1999/xlink" width="504pt" height="216pt" viewBox="0 0 504 216" xmlns="http://www.w3.org/2000/svg" version="1.1">
 <metadata>
  <rdf:RDF xmlns:dc="http://purl.org/dc/elements/1.1/" xmlns:cc="http://creativecommons.org/ns#" xmlns:rdf="http://www.w3.org/1999/02/22-rdf-syntax-ns#">
   <cc:Work>
    <dc:type rdf:resource="http://purl.org/dc/dcmitype/StillImage"/>
    <dc:date>2023-10-24T16:38:58.155810</dc:date>
    <dc:format>image/svg+xml</dc:format>
    <dc:creator>
     <cc:Agent>
      <dc:title>Matplotlib v3.8.0, https://matplotlib.org/</dc:title>
     </cc:Agent>
    </dc:creator>
   </cc:Work>
  </rdf:RDF>
 </metadata>
 <defs>
  <style type="text/css">*{stroke-linejoin: round; stroke-linecap: butt}</style>
 </defs>
 <g id="figure_1">
  <g id="patch_1">
   <path d="M 0 216 
L 504 216 
L 504 0 
L 0 0 
z
" style="fill: #ffffff"/>
  </g>
  <g id="axes_1">
   <g id="patch_2">
    <path d="M 63 192.24 
L 453.6 192.24 
L 453.6 25.92 
L 63 25.92 
z
" style="fill: #ffffff"/>
   </g>
   <g id="PolyCollection_1">
    <defs>
     <path id="me4ff579d2a" d="M 66.906 -68.616426 
L 66.906 -62.187012 
L 70.812 -57.386454 
L 74.718 -54.614331 
L 78.624 -53.361396 
L 82.53 -51.728429 
L 86.436 -50.181937 
L 90.342 -50.177976 
L 94.248 -49.920271 
L 98.154 -46.99799 
L 102.06 -47.336726 
L 105.966 -47.039044 
L 109.872 -46.024309 
L 113.778 -46.564855 
L 117.684 -46.060385 
L 121.59 -44.058819 
L 125.496 -43.781336 
L 129.402 -44.406583 
L 133.308 -43.221699 
L 137.214 -44.5288 
L 141.12 -42.431108 
L 145.026 -43.699871 
L 148.932 -42.142724 
L 152.838 -42.253201 
L 156.744 -42.062743 
L 160.65 -42.514704 
L 164.556 -42.188961 
L 168.462 -40.575498 
L 172.368 -40.589699 
L 176.274 -40.127716 
L 180.18 -41.127029 
L 184.086 -39.773392 
L 187.992 -38.652461 
L 191.898 -40.144673 
L 195.804 -39.986848 
L 199.71 -39.275877 
L 203.616 -39.03937 
L 207.522 -38.941075 
L 211.428 -39.071207 
L 215.334 -39.469713 
L 219.24 -38.980633 
L 223.146 -39.140449 
L 227.052 -38.068616 
L 230.958 -37.270657 
L 234.864 -37.868125 
L 238.77 -37.99181 
L 242.676 -37.08311 
L 246.582 -36.300922 
L 250.488 -37.228682 
L 254.394 -38.414644 
L 258.3 -36.074283 
L 262.206 -36.962239 
L 266.112 -35.739676 
L 270.018 -35.931392 
L 273.924 -35.939512 
L 277.83 -35.808015 
L 281.736 -36.200328 
L 285.642 -35.744396 
L 289.548 -35.452398 
L 293.454 -35.296812 
L 297.36 -36.142711 
L 301.266 -35.680238 
L 305.172 -35.885406 
L 309.078 -34.982416 
L 312.984 -35.26364 
L 316.89 -34.663375 
L 320.796 -34.92288 
L 324.702 -34.972055 
L 328.608 -34.467901 
L 332.514 -34.687351 
L 336.42 -34.46741 
L 340.326 -33.946655 
L 344.232 -33.721333 
L 348.138 -33.79262 
L 352.044 -33.802232 
L 355.95 -34.10873 
L 359.856 -33.463239 
L 363.762 -33.689804 
L 367.668 -33.412895 
L 371.574 -33.338033 
L 375.48 -33.110196 
L 379.386 -33.065224 
L 383.292 -33.27424 
L 387.198 -32.871152 
L 391.104 -32.820063 
L 395.01 -32.704902 
L 398.916 -32.708396 
L 402.822 -32.589276 
L 406.728 -32.580961 
L 410.634 -32.329562 
L 414.54 -32.227946 
L 418.446 -32.149378 
L 422.352 -32.191201 
L 426.258 -31.961357 
L 430.164 -31.782332 
L 434.07 -31.677559 
L 437.976 -31.678765 
L 441.882 -31.575838 
L 445.788 -31.494622 
L 449.694 -31.410681 
L 453.6 -31.32 
L 453.6 -31.32 
L 453.6 -31.32 
L 449.694 -31.477198 
L 445.788 -31.620334 
L 441.882 -31.801291 
L 437.976 -31.926778 
L 434.07 -32.022045 
L 430.164 -32.207255 
L 426.258 -32.384817 
L 422.352 -32.64755 
L 418.446 -32.831593 
L 414.54 -32.92914 
L 410.634 -33.074854 
L 406.728 -33.297 
L 402.822 -33.385307 
L 398.916 -33.56112 
L 395.01 -33.765982 
L 391.104 -33.971542 
L 387.198 -34.161617 
L 383.292 -34.466035 
L 379.386 -34.581139 
L 375.48 -34.625156 
L 371.574 -34.677347 
L 367.668 -34.947442 
L 363.762 -35.297674 
L 359.856 -35.631512 
L 355.95 -35.707746 
L 352.044 -35.615586 
L 348.138 -35.627395 
L 344.232 -35.934829 
L 340.326 -36.062888 
L 336.42 -36.414929 
L 332.514 -36.781809 
L 328.608 -36.976487 
L 324.702 -37.219059 
L 320.796 -37.345971 
L 316.89 -37.518555 
L 312.984 -37.914277 
L 309.078 -37.772138 
L 305.172 -38.530246 
L 301.266 -38.349965 
L 297.36 -38.29503 
L 293.454 -37.765846 
L 289.548 -38.853439 
L 285.642 -38.683952 
L 281.736 -39.014912 
L 277.83 -38.59858 
L 273.924 -39.854489 
L 270.018 -38.047743 
L 266.112 -39.452904 
L 262.206 -40.172676 
L 258.3 -39.456163 
L 254.394 -41.246176 
L 250.488 -41.103723 
L 246.582 -40.5516 
L 242.676 -40.060191 
L 238.77 -41.460571 
L 234.864 -41.77049 
L 230.958 -41.811399 
L 227.052 -41.187312 
L 223.146 -43.157947 
L 219.24 -42.883501 
L 215.334 -43.124082 
L 211.428 -43.450789 
L 207.522 -43.047338 
L 203.616 -42.683275 
L 199.71 -44.312001 
L 195.804 -44.341617 
L 191.898 -45.303484 
L 187.992 -43.190391 
L 184.086 -45.309085 
L 180.18 -46.316055 
L 176.274 -44.226825 
L 172.368 -45.133119 
L 168.462 -45.324021 
L 164.556 -47.135824 
L 160.65 -46.885365 
L 156.744 -47.154467 
L 152.838 -46.815518 
L 148.932 -48.856474 
L 145.026 -49.353641 
L 141.12 -47.720719 
L 137.214 -49.654004 
L 133.308 -49.260385 
L 129.402 -50.523324 
L 125.496 -49.192244 
L 121.59 -51.31147 
L 117.684 -50.87053 
L 113.778 -53.403604 
L 109.872 -53.846912 
L 105.966 -52.237104 
L 102.06 -52.33009 
L 98.154 -54.596402 
L 94.248 -55.519381 
L 90.342 -56.50611 
L 86.436 -57.160673 
L 82.53 -57.186888 
L 78.624 -60.440109 
L 74.718 -62.280879 
L 70.812 -64.390653 
L 66.906 -68.616426 
z
"/>
    </defs>
    <g clip-path="url(#p0d4b544ed2)">
     <use xlink:href="#me4ff579d2a" x="0" y="216" style="fill: #1f77b4; fill-opacity: 0.2"/>
    </g>
   </g>
   <g id="PolyCollection_2">
    <defs>
     <path id="maf7b1925f2" d="M 66.906 -106.510181 
L 66.906 -93.108445 
L 70.812 -85.33272 
L 74.718 -81.184888 
L 78.624 -78.954264 
L 82.53 -71.556673 
L 86.436 -69.473352 
L 90.342 -66.868939 
L 94.248 -67.132475 
L 98.154 -65.435026 
L 102.06 -62.422206 
L 105.966 -63.239496 
L 109.872 -62.556279 
L 113.778 -62.532787 
L 117.684 -57.911269 
L 121.59 -60.194185 
L 125.496 -58.128389 
L 129.402 -59.023731 
L 133.308 -55.033057 
L 137.214 -58.787087 
L 141.12 -52.819148 
L 145.026 -54.114262 
L 148.932 -55.145619 
L 152.838 -56.19566 
L 156.744 -54.837032 
L 160.65 -52.280616 
L 164.556 -52.230531 
L 168.462 -52.39635 
L 172.368 -51.154918 
L 176.274 -51.229361 
L 180.18 -49.686304 
L 184.086 -47.846711 
L 187.992 -49.68459 
L 191.898 -50.734046 
L 195.804 -46.893602 
L 199.71 -48.870925 
L 203.616 -46.64875 
L 207.522 -48.460358 
L 211.428 -46.744643 
L 215.334 -45.515423 
L 219.24 -47.144464 
L 223.146 -44.119931 
L 227.052 -45.997565 
L 230.958 -44.347534 
L 234.864 -45.236035 
L 238.77 -43.176032 
L 242.676 -44.291702 
L 246.582 -43.178795 
L 250.488 -43.988518 
L 254.394 -42.435491 
L 258.3 -42.008096 
L 262.206 -43.049644 
L 266.112 -41.291132 
L 270.018 -42.404924 
L 273.924 -40.309235 
L 277.83 -41.567603 
L 281.736 -40.296574 
L 285.642 -40.906551 
L 289.548 -41.200125 
L 293.454 -39.878525 
L 297.36 -38.432034 
L 301.266 -39.635231 
L 305.172 -38.697923 
L 309.078 -38.924945 
L 312.984 -38.456868 
L 316.89 -38.017212 
L 320.796 -37.458539 
L 324.702 -37.85476 
L 328.608 -37.901461 
L 332.514 -37.913819 
L 336.42 -36.871038 
L 340.326 -36.947559 
L 344.232 -35.634378 
L 348.138 -36.814175 
L 352.044 -35.846135 
L 355.95 -36.004459 
L 359.856 -36.328691 
L 363.762 -36.188594 
L 367.668 -35.906796 
L 371.574 -35.542952 
L 375.48 -35.234845 
L 379.386 -34.807674 
L 383.292 -35.151471 
L 387.198 -34.278998 
L 391.104 -34.566133 
L 395.01 -34.350044 
L 398.916 -33.851064 
L 402.822 -33.9424 
L 406.728 -33.115229 
L 410.634 -33.521444 
L 414.54 -33.078336 
L 418.446 -33.094315 
L 422.352 -32.716829 
L 426.258 -32.644473 
L 430.164 -32.550846 
L 434.07 -32.388517 
L 437.976 -32.084514 
L 441.882 -31.838946 
L 445.788 -31.652999 
L 449.694 -31.494093 
L 453.6 -31.32 
L 453.6 -31.32 
L 453.6 -31.32 
L 449.694 -31.628506 
L 445.788 -31.932027 
L 441.882 -32.23517 
L 437.976 -32.637342 
L 434.07 -32.993467 
L 430.164 -33.207899 
L 426.258 -33.69053 
L 422.352 -33.859935 
L 418.446 -34.320649 
L 414.54 -34.491077 
L 410.634 -35.105651 
L 406.728 -34.408407 
L 402.822 -35.682711 
L 398.916 -35.911725 
L 395.01 -35.937017 
L 391.104 -36.570719 
L 387.198 -36.823043 
L 383.292 -37.221556 
L 379.386 -37.775762 
L 375.48 -37.646982 
L 371.574 -38.699901 
L 367.668 -38.820696 
L 363.762 -38.919408 
L 359.856 -39.77975 
L 355.95 -39.682457 
L 352.044 -38.703447 
L 348.138 -40.791299 
L 344.232 -39.650663 
L 340.326 -40.642292 
L 336.42 -40.597692 
L 332.514 -42.71429 
L 328.608 -42.33741 
L 324.702 -42.974179 
L 320.796 -42.746515 
L 316.89 -43.486568 
L 312.984 -44.006272 
L 309.078 -44.340146 
L 305.172 -43.483536 
L 301.266 -43.79476 
L 297.36 -44.519621 
L 293.454 -44.817294 
L 289.548 -47.278405 
L 285.642 -47.241756 
L 281.736 -45.037227 
L 277.83 -48.57234 
L 273.924 -48.789477 
L 270.018 -48.765221 
L 266.112 -48.786926 
L 262.206 -49.355721 
L 258.3 -49.854722 
L 254.394 -49.147938 
L 250.488 -49.366937 
L 246.582 -50.342681 
L 242.676 -52.492247 
L 238.77 -50.979375 
L 234.864 -53.226692 
L 230.958 -52.391446 
L 227.052 -54.277259 
L 223.146 -52.81665 
L 219.24 -52.579653 
L 215.334 -54.27034 
L 211.428 -55.0131 
L 207.522 -55.821856 
L 203.616 -55.184398 
L 199.71 -56.376221 
L 195.804 -57.133197 
L 191.898 -57.802353 
L 187.992 -59.613561 
L 184.086 -58.38825 
L 180.18 -58.95771 
L 176.274 -62.584893 
L 172.368 -60.152229 
L 168.462 -60.744923 
L 164.556 -62.717099 
L 160.65 -63.132876 
L 156.744 -65.161429 
L 152.838 -67.335476 
L 148.932 -65.904617 
L 145.026 -66.508714 
L 141.12 -64.319314 
L 137.214 -67.002611 
L 133.308 -68.006622 
L 129.402 -71.231241 
L 125.496 -68.202495 
L 121.59 -71.597588 
L 117.684 -69.525222 
L 113.778 -73.964335 
L 109.872 -73.20786 
L 105.966 -75.464702 
L 102.06 -75.572508 
L 98.154 -77.245625 
L 94.248 -79.92654 
L 90.342 -82.982091 
L 86.436 -81.192708 
L 82.53 -86.723193 
L 78.624 -92.028727 
L 74.718 -94.269979 
L 70.812 -99.334032 
L 66.906 -106.510181 
z
"/>
    </defs>
    <g clip-path="url(#p0d4b544ed2)">
     <use xlink:href="#maf7b1925f2" x="0" y="216" style="fill: #ff7f0e; fill-opacity: 0.2"/>
    </g>
   </g>
   <g id="PolyCollection_3">
    <defs>
     <path id="me8419a6c51" d="M 66.906 -148.010264 
L 66.906 -126.615339 
L 70.812 -111.056814 
L 74.718 -98.480062 
L 78.624 -103.700974 
L 82.53 -95.292227 
L 86.436 -94.828584 
L 90.342 -86.90806 
L 94.248 -78.509992 
L 98.154 -80.752784 
L 102.06 -80.580346 
L 105.966 -74.371843 
L 109.872 -82.361569 
L 113.778 -79.381992 
L 117.684 -73.832907 
L 121.59 -71.464 
L 125.496 -76.587076 
L 129.402 -67.802133 
L 133.308 -69.77421 
L 137.214 -70.599548 
L 141.12 -75.090789 
L 145.026 -64.359541 
L 148.932 -63.35252 
L 152.838 -62.014765 
L 156.744 -67.03995 
L 160.65 -61.260156 
L 164.556 -63.717783 
L 168.462 -61.211131 
L 172.368 -63.601107 
L 176.274 -64.042268 
L 180.18 -61.472945 
L 184.086 -63.081868 
L 187.992 -58.841145 
L 191.898 -59.098137 
L 195.804 -56.367328 
L 199.71 -55.322148 
L 203.616 -52.768037 
L 207.522 -53.469059 
L 211.428 -53.244235 
L 215.334 -51.481633 
L 219.24 -53.053224 
L 223.146 -51.937219 
L 227.052 -51.741106 
L 230.958 -51.745832 
L 234.864 -48.751777 
L 238.77 -51.416527 
L 242.676 -50.556586 
L 246.582 -49.161058 
L 250.488 -49.039469 
L 254.394 -49.786296 
L 258.3 -48.623159 
L 262.206 -48.744649 
L 266.112 -47.772694 
L 270.018 -45.845444 
L 273.924 -46.57787 
L 277.83 -43.798096 
L 281.736 -48.16812 
L 285.642 -45.407018 
L 289.548 -43.622742 
L 293.454 -43.338669 
L 297.36 -42.371366 
L 301.266 -44.973382 
L 305.172 -41.967178 
L 309.078 -43.839801 
L 312.984 -42.370276 
L 316.89 -41.319003 
L 320.796 -41.775871 
L 324.702 -41.206447 
L 328.608 -41.99988 
L 332.514 -41.125858 
L 336.42 -40.531744 
L 340.326 -40.241503 
L 344.232 -42.576221 
L 348.138 -39.781334 
L 352.044 -37.994457 
L 355.95 -38.108063 
L 359.856 -38.845641 
L 363.762 -38.280929 
L 367.668 -36.54553 
L 371.574 -36.270193 
L 375.48 -37.415214 
L 379.386 -36.823675 
L 383.292 -37.194096 
L 387.198 -36.138729 
L 391.104 -35.941403 
L 395.01 -35.842896 
L 398.916 -35.238006 
L 402.822 -34.944461 
L 406.728 -34.664626 
L 410.634 -33.950827 
L 414.54 -34.326426 
L 418.446 -33.688675 
L 422.352 -33.567425 
L 426.258 -33.357422 
L 430.164 -32.708451 
L 434.07 -32.703729 
L 437.976 -32.247467 
L 441.882 -32.065862 
L 445.788 -31.90135 
L 449.694 -31.60302 
L 453.6 -31.32 
L 453.6 -31.32 
L 453.6 -31.32 
L 449.694 -31.801909 
L 445.788 -32.318984 
L 441.882 -32.633039 
L 437.976 -33.030601 
L 434.07 -33.645164 
L 430.164 -34.112352 
L 426.258 -34.756089 
L 422.352 -34.868002 
L 418.446 -35.609728 
L 414.54 -36.20249 
L 410.634 -36.172316 
L 406.728 -36.911379 
L 402.822 -37.411964 
L 398.916 -37.721339 
L 395.01 -38.675372 
L 391.104 -39.362299 
L 387.198 -40.583006 
L 383.292 -40.212773 
L 379.386 -41.033122 
L 375.48 -42.032016 
L 371.574 -40.841665 
L 367.668 -42.277472 
L 363.762 -43.246215 
L 359.856 -44.279259 
L 355.95 -43.031413 
L 352.044 -41.803828 
L 348.138 -45.984868 
L 344.232 -47.314688 
L 340.326 -45.787754 
L 336.42 -46.591741 
L 332.514 -47.876491 
L 328.608 -48.926824 
L 324.702 -46.507311 
L 320.796 -48.601562 
L 316.89 -49.63582 
L 312.984 -49.590602 
L 309.078 -51.622838 
L 305.172 -50.549524 
L 301.266 -52.887135 
L 297.36 -52.064422 
L 293.454 -51.065734 
L 289.548 -51.738373 
L 285.642 -54.397502 
L 281.736 -55.939092 
L 277.83 -55.449963 
L 273.924 -55.132481 
L 270.018 -56.996541 
L 266.112 -57.376451 
L 262.206 -56.831412 
L 258.3 -59.032016 
L 254.394 -59.509337 
L 250.488 -60.301229 
L 246.582 -61.067987 
L 242.676 -60.728379 
L 238.77 -62.340776 
L 234.864 -62.87895 
L 230.958 -62.719201 
L 227.052 -63.927997 
L 223.146 -62.774359 
L 219.24 -66.848521 
L 215.334 -64.128771 
L 211.428 -67.511603 
L 207.522 -66.655626 
L 203.616 -67.854186 
L 199.71 -64.138552 
L 195.804 -70.846364 
L 191.898 -72.842996 
L 187.992 -71.074697 
L 184.086 -75.848777 
L 180.18 -75.908588 
L 176.274 -77.332944 
L 172.368 -80.021651 
L 168.462 -75.455081 
L 164.556 -76.103382 
L 160.65 -74.069669 
L 156.744 -77.699696 
L 152.838 -74.855881 
L 148.932 -78.730483 
L 145.026 -82.368876 
L 141.12 -85.67172 
L 137.214 -86.861427 
L 133.308 -87.474351 
L 129.402 -86.198147 
L 125.496 -90.970313 
L 121.59 -91.579764 
L 117.684 -91.375906 
L 113.778 -94.314644 
L 109.872 -100.035485 
L 105.966 -94.55441 
L 102.06 -96.697472 
L 98.154 -100.563986 
L 94.248 -103.693675 
L 90.342 -107.074286 
L 86.436 -113.797114 
L 82.53 -113.276449 
L 78.624 -118.569345 
L 74.718 -117.624099 
L 70.812 -129.94522 
L 66.906 -148.010264 
z
"/>
    </defs>
    <g clip-path="url(#p0d4b544ed2)">
     <use xlink:href="#me8419a6c51" x="0" y="216" style="fill: #2ca02c; fill-opacity: 0.2"/>
    </g>
   </g>
   <g id="PolyCollection_4">
    <defs>
     <path id="m6bce0dbbb9" d="M 66.906 -182.52 
L 66.906 -158.195712 
L 70.812 -143.731969 
L 74.718 -132.733994 
L 78.624 -119.03365 
L 82.53 -113.905228 
L 86.436 -106.376598 
L 90.342 -109.133267 
L 94.248 -99.396486 
L 98.154 -100.824747 
L 102.06 -97.968911 
L 105.966 -100.130276 
L 109.872 -89.902064 
L 113.778 -90.939842 
L 117.684 -87.15425 
L 121.59 -86.698598 
L 125.496 -82.865721 
L 129.402 -87.532368 
L 133.308 -77.580728 
L 137.214 -82.883778 
L 141.12 -77.139012 
L 145.026 -75.121232 
L 148.932 -75.189542 
L 152.838 -80.454613 
L 156.744 -71.015244 
L 160.65 -69.124883 
L 164.556 -67.025982 
L 168.462 -71.321454 
L 172.368 -70.416499 
L 176.274 -72.498156 
L 180.18 -66.767217 
L 184.086 -70.770673 
L 187.992 -62.74723 
L 191.898 -66.895465 
L 195.804 -60.820549 
L 199.71 -62.83187 
L 203.616 -59.415974 
L 207.522 -60.480995 
L 211.428 -57.665491 
L 215.334 -62.887892 
L 219.24 -58.84326 
L 223.146 -58.854606 
L 227.052 -61.352514 
L 230.958 -58.143232 
L 234.864 -52.52789 
L 238.77 -55.777999 
L 242.676 -58.279833 
L 246.582 -54.393406 
L 250.488 -51.075423 
L 254.394 -52.940136 
L 258.3 -56.964856 
L 262.206 -54.931595 
L 266.112 -55.919164 
L 270.018 -54.113376 
L 273.924 -51.637801 
L 277.83 -47.155172 
L 281.736 -48.197527 
L 285.642 -49.589823 
L 289.548 -48.425347 
L 293.454 -48.695139 
L 297.36 -48.834941 
L 301.266 -47.739346 
L 305.172 -45.176959 
L 309.078 -49.124337 
L 312.984 -45.500074 
L 316.89 -45.186229 
L 320.796 -42.646032 
L 324.702 -45.054516 
L 328.608 -44.016466 
L 332.514 -44.296386 
L 336.42 -41.746412 
L 340.326 -42.508909 
L 344.232 -41.380999 
L 348.138 -43.703872 
L 352.044 -43.274898 
L 355.95 -41.600975 
L 359.856 -40.061069 
L 363.762 -41.751086 
L 367.668 -40.519454 
L 371.574 -38.459751 
L 375.48 -41.063701 
L 379.386 -38.430798 
L 383.292 -38.34971 
L 387.198 -38.108629 
L 391.104 -38.785837 
L 395.01 -36.81786 
L 398.916 -35.912956 
L 402.822 -35.925518 
L 406.728 -35.624484 
L 410.634 -35.696126 
L 414.54 -34.831108 
L 418.446 -34.314764 
L 422.352 -34.251218 
L 426.258 -34.067913 
L 430.164 -33.965713 
L 434.07 -33.100373 
L 437.976 -32.616307 
L 441.882 -32.352007 
L 445.788 -32.125841 
L 449.694 -31.698242 
L 453.6 -31.32 
L 453.6 -31.32 
L 453.6 -31.32 
L 449.694 -31.981778 
L 445.788 -32.583382 
L 441.882 -33.296651 
L 437.976 -33.863223 
L 434.07 -34.575902 
L 430.164 -35.321174 
L 426.258 -35.540472 
L 422.352 -36.243646 
L 418.446 -36.701369 
L 414.54 -38.00596 
L 410.634 -38.677172 
L 406.728 -39.003043 
L 402.822 -40.324323 
L 398.916 -39.523926 
L 395.01 -41.069679 
L 391.104 -42.479784 
L 387.198 -42.495504 
L 383.292 -42.189117 
L 379.386 -43.557107 
L 375.48 -44.887266 
L 371.574 -44.00757 
L 367.668 -45.652361 
L 363.762 -46.968055 
L 359.856 -46.425556 
L 355.95 -48.114922 
L 352.044 -49.54192 
L 348.138 -50.062151 
L 344.232 -49.578589 
L 340.326 -50.590131 
L 336.42 -51.916191 
L 332.514 -52.739534 
L 328.608 -52.844715 
L 324.702 -54.457906 
L 320.796 -53.041379 
L 316.89 -56.534411 
L 312.984 -54.908693 
L 309.078 -59.136911 
L 305.172 -56.03517 
L 301.266 -58.431801 
L 297.36 -59.652932 
L 293.454 -61.027048 
L 289.548 -60.264699 
L 285.642 -61.091777 
L 281.736 -59.061225 
L 277.83 -60.025189 
L 273.924 -63.46644 
L 270.018 -64.928401 
L 266.112 -67.886443 
L 262.206 -68.466512 
L 258.3 -67.533556 
L 254.394 -68.795083 
L 250.488 -65.286913 
L 246.582 -68.671369 
L 242.676 -71.995812 
L 238.77 -69.337415 
L 234.864 -68.162067 
L 230.958 -74.217677 
L 227.052 -77.475519 
L 223.146 -76.72056 
L 219.24 -78.021296 
L 215.334 -82.202866 
L 211.428 -80.183304 
L 207.522 -79.663567 
L 203.616 -77.252281 
L 199.71 -81.198729 
L 195.804 -79.296693 
L 191.898 -83.618489 
L 187.992 -83.323845 
L 184.086 -87.185739 
L 180.18 -89.318161 
L 176.274 -92.327499 
L 172.368 -88.521585 
L 168.462 -94.221703 
L 164.556 -90.712022 
L 160.65 -91.143917 
L 156.744 -91.300695 
L 152.838 -97.578577 
L 148.932 -97.235343 
L 145.026 -99.660662 
L 141.12 -102.336264 
L 137.214 -106.328619 
L 133.308 -98.771026 
L 129.402 -109.864657 
L 125.496 -104.373144 
L 121.59 -109.326171 
L 117.684 -112.602805 
L 113.778 -114.342824 
L 109.872 -114.792985 
L 105.966 -121.597234 
L 102.06 -121.489172 
L 98.154 -123.979899 
L 94.248 -124.189283 
L 90.342 -136.608199 
L 86.436 -134.339962 
L 82.53 -136.565401 
L 78.624 -136.816712 
L 74.718 -159.374702 
L 70.812 -167.205499 
L 66.906 -182.52 
z
"/>
    </defs>
    <g clip-path="url(#p0d4b544ed2)">
     <use xlink:href="#m6bce0dbbb9" x="0" y="216" style="fill: #d62728; fill-opacity: 0.2"/>
    </g>
   </g>
   <g id="matplotlib.axis_1">
    <g id="xtick_1">
     <g id="line2d_1">
      <path d="M 63 192.24 
L 63 25.92 
" clip-path="url(#p0d4b544ed2)" style="fill: none; stroke: #b0b0b0; stroke-opacity: 0.4; stroke-width: 0.8; stroke-linecap: square"/>
     </g>
     <g id="line2d_2">
      <defs>
       <path id="m788efffbe7" d="M 0 0 
L 0 3.5 
" style="stroke: #000000; stroke-width: 0.8"/>
      </defs>
      <g>
       <use xlink:href="#m788efffbe7" x="63" y="192.24" style="stroke: #000000; stroke-width: 0.8"/>
      </g>
     </g>
     <g id="text_1">
      <!-- 0 -->
      <g transform="translate(58.784074 211.6933) scale(0.18 -0.18)">
       <defs>
        <path id="CMSS17-30" d="M 2758 2044 
C 2758 2405 2752 3077 2490 3596 
C 2227 4096 1805 4229 1504 4229 
C 1069 4229 698 3975 506 3570 
C 301 3146 243 2709 243 2044 
C 243 1589 262 1031 493 543 
C 755 5 1197 -128 1498 -128 
C 1894 -128 2278 81 2496 518 
C 2720 974 2758 1474 2758 2044 
z
M 1498 261 
C 1011 261 864 811 819 995 
C 742 1310 730 1614 730 2114 
C 730 2506 730 2948 851 3297 
C 998 3701 1254 3840 1498 3840 
C 1971 3840 2125 3372 2176 3208 
C 2272 2873 2272 2481 2272 2114 
C 2272 1526 2272 261 1498 261 
z
" transform="scale(0.015625)"/>
       </defs>
       <use xlink:href="#CMSS17-30" transform="scale(0.996264)"/>
      </g>
     </g>
    </g>
    <g id="xtick_2">
     <g id="line2d_3">
      <path d="M 102.06 192.24 
L 102.06 25.92 
" clip-path="url(#p0d4b544ed2)" style="fill: none; stroke: #b0b0b0; stroke-opacity: 0.4; stroke-width: 0.8; stroke-linecap: square"/>
     </g>
     <g id="line2d_4">
      <g>
       <use xlink:href="#m788efffbe7" x="102.06" y="192.24" style="stroke: #000000; stroke-width: 0.8"/>
      </g>
     </g>
     <g id="text_2">
      <!-- 10 -->
      <g transform="translate(93.628149 211.6933) scale(0.18 -0.18)">
       <defs>
        <path id="CMSS17-31" d="M 1818 4288 
L 1696 4288 
C 1350 3940 947 3890 538 3890 
L 538 3520 
C 723 3520 1024 3520 1325 3667 
L 1325 369 
L 570 369 
L 570 0 
L 2573 0 
L 2573 369 
L 1818 369 
L 1818 4288 
z
" transform="scale(0.015625)"/>
       </defs>
       <use xlink:href="#CMSS17-31" transform="scale(0.996264)"/>
       <use xlink:href="#CMSS17-30" transform="translate(46.843624 0) scale(0.996264)"/>
      </g>
     </g>
    </g>
    <g id="xtick_3">
     <g id="line2d_5">
      <path d="M 141.12 192.24 
L 141.12 25.92 
" clip-path="url(#p0d4b544ed2)" style="fill: none; stroke: #b0b0b0; stroke-opacity: 0.4; stroke-width: 0.8; stroke-linecap: square"/>
     </g>
     <g id="line2d_6">
      <g>
       <use xlink:href="#m788efffbe7" x="141.12" y="192.24" style="stroke: #000000; stroke-width: 0.8"/>
      </g>
     </g>
     <g id="text_3">
      <!-- 20 -->
      <g transform="translate(132.688149 211.6933) scale(0.18 -0.18)">
       <defs>
        <path id="CMSS17-32" d="M 1651 1357 
C 1830 1541 2099 1764 2285 1987 
C 2464 2204 2701 2511 2701 2957 
C 2701 3657 2227 4288 1421 4288 
C 787 4288 422 3893 250 3274 
L 499 2929 
C 640 3510 838 3880 1338 3880 
C 1888 3880 2195 3433 2195 2942 
C 2195 2355 1747 1901 1408 1563 
C 1030 1187 659 804 301 408 
L 301 0 
L 2701 0 
L 2701 433 
L 1613 433 
C 1536 433 1459 433 1382 433 
L 742 433 
L 742 439 
L 1651 1357 
z
" transform="scale(0.015625)"/>
       </defs>
       <use xlink:href="#CMSS17-32" transform="scale(0.996264)"/>
       <use xlink:href="#CMSS17-30" transform="translate(46.843624 0) scale(0.996264)"/>
      </g>
     </g>
    </g>
    <g id="xtick_4">
     <g id="line2d_7">
      <path d="M 180.18 192.24 
L 180.18 25.92 
" clip-path="url(#p0d4b544ed2)" style="fill: none; stroke: #b0b0b0; stroke-opacity: 0.4; stroke-width: 0.8; stroke-linecap: square"/>
     </g>
     <g id="line2d_8">
      <g>
       <use xlink:href="#m788efffbe7" x="180.18" y="192.24" style="stroke: #000000; stroke-width: 0.8"/>
      </g>
     </g>
     <g id="text_4">
      <!-- 30 -->
      <g transform="translate(171.748149 211.6933) scale(0.18 -0.18)">
       <defs>
        <path id="CMSS17-33" d="M 1005 2025 
L 1440 2025 
C 2042 2025 2214 1507 2214 1146 
C 2214 653 1933 267 1472 267 
C 1114 267 608 444 320 912 
C 275 691 275 678 250 526 
C 550 88 1037 -128 1485 -128 
C 2214 -128 2752 473 2752 1138 
C 2752 1638 2400 2057 1920 2215 
C 2304 2424 2586 2816 2586 3273 
C 2586 3805 2093 4229 1491 4229 
C 941 4229 512 3892 333 3530 
C 378 3468 493 3284 550 3189 
C 691 3562 1056 3840 1485 3840 
C 1843 3840 2080 3607 2080 3271 
C 2080 2923 1856 2543 1478 2455 
C 1453 2455 1056 2417 1005 2411 
L 1005 2025 
z
" transform="scale(0.015625)"/>
       </defs>
       <use xlink:href="#CMSS17-33" transform="scale(0.996264)"/>
       <use xlink:href="#CMSS17-30" transform="translate(46.843624 0) scale(0.996264)"/>
      </g>
     </g>
    </g>
    <g id="xtick_5">
     <g id="line2d_9">
      <path d="M 219.24 192.24 
L 219.24 25.92 
" clip-path="url(#p0d4b544ed2)" style="fill: none; stroke: #b0b0b0; stroke-opacity: 0.4; stroke-width: 0.8; stroke-linecap: square"/>
     </g>
     <g id="line2d_10">
      <g>
       <use xlink:href="#m788efffbe7" x="219.24" y="192.24" style="stroke: #000000; stroke-width: 0.8"/>
      </g>
     </g>
     <g id="text_5">
      <!-- 40 -->
      <g transform="translate(210.808149 211.6933) scale(0.18 -0.18)">
       <defs>
        <path id="CMSS17-34" d="M 2253 1088 
L 2835 1088 
L 2835 1477 
L 2253 1477 
L 2253 4192 
L 1690 4192 
L 166 1477 
L 166 1088 
L 1747 1088 
L 1747 0 
L 2253 0 
L 2253 1088 
z
M 659 1477 
C 1030 2127 1766 3439 1766 3885 
L 1766 1477 
L 659 1477 
z
" transform="scale(0.015625)"/>
       </defs>
       <use xlink:href="#CMSS17-34" transform="scale(0.996264)"/>
       <use xlink:href="#CMSS17-30" transform="translate(46.843624 0) scale(0.996264)"/>
      </g>
     </g>
    </g>
    <g id="xtick_6">
     <g id="line2d_11">
      <path d="M 258.3 192.24 
L 258.3 25.92 
" clip-path="url(#p0d4b544ed2)" style="fill: none; stroke: #b0b0b0; stroke-opacity: 0.4; stroke-width: 0.8; stroke-linecap: square"/>
     </g>
     <g id="line2d_12">
      <g>
       <use xlink:href="#m788efffbe7" x="258.3" y="192.24" style="stroke: #000000; stroke-width: 0.8"/>
      </g>
     </g>
     <g id="text_6">
      <!-- 50 -->
      <g transform="translate(249.868149 211.6933) scale(0.18 -0.18)">
       <defs>
        <path id="CMSS17-35" d="M 934 3752 
L 2502 3752 
L 2502 4160 
L 467 4160 
L 467 1781 
L 896 1781 
C 1011 2046 1248 2240 1555 2240 
C 1843 2240 2163 1989 2163 1266 
C 2163 493 1709 267 1376 267 
C 966 267 589 512 422 851 
L 218 499 
C 512 49 992 -128 1376 -128 
C 2118 -128 2701 497 2701 1253 
C 2701 2030 2182 2629 1562 2629 
C 1338 2629 1120 2553 934 2399 
L 934 3752 
z
" transform="scale(0.015625)"/>
       </defs>
       <use xlink:href="#CMSS17-35" transform="scale(0.996264)"/>
       <use xlink:href="#CMSS17-30" transform="translate(46.843624 0) scale(0.996264)"/>
      </g>
     </g>
    </g>
    <g id="xtick_7">
     <g id="line2d_13">
      <path d="M 297.36 192.24 
L 297.36 25.92 
" clip-path="url(#p0d4b544ed2)" style="fill: none; stroke: #b0b0b0; stroke-opacity: 0.4; stroke-width: 0.8; stroke-linecap: square"/>
     </g>
     <g id="line2d_14">
      <g>
       <use xlink:href="#m788efffbe7" x="297.36" y="192.24" style="stroke: #000000; stroke-width: 0.8"/>
      </g>
     </g>
     <g id="text_7">
      <!-- 60 -->
      <g transform="translate(288.928149 211.6933) scale(0.18 -0.18)">
       <defs>
        <path id="CMSS17-36" d="M 2496 4101 
C 2227 4210 2035 4229 1856 4229 
C 1024 4229 250 3368 250 2006 
C 250 265 986 -128 1510 -128 
C 1798 -128 2086 -39 2362 280 
C 2643 617 2752 898 2752 1389 
C 2752 2179 2362 2880 1779 2880 
C 1357 2880 992 2657 768 2376 
C 832 3258 1254 3840 1862 3840 
C 2029 3840 2246 3816 2496 3710 
L 2496 4101 
z
M 774 1369 
C 774 1420 774 1452 781 1548 
C 781 2045 1069 2491 1536 2491 
C 1837 2491 1990 2332 2106 2135 
C 2240 1886 2246 1650 2246 1388 
C 2246 1140 2246 891 2099 637 
C 1978 439 1818 267 1510 267 
C 902 267 800 1114 774 1369 
z
" transform="scale(0.015625)"/>
       </defs>
       <use xlink:href="#CMSS17-36" transform="scale(0.996264)"/>
       <use xlink:href="#CMSS17-30" transform="translate(46.843624 0) scale(0.996264)"/>
      </g>
     </g>
    </g>
    <g id="xtick_8">
     <g id="line2d_15">
      <path d="M 336.42 192.24 
L 336.42 25.92 
" clip-path="url(#p0d4b544ed2)" style="fill: none; stroke: #b0b0b0; stroke-opacity: 0.4; stroke-width: 0.8; stroke-linecap: square"/>
     </g>
     <g id="line2d_16">
      <g>
       <use xlink:href="#m788efffbe7" x="336.42" y="192.24" style="stroke: #000000; stroke-width: 0.8"/>
      </g>
     </g>
     <g id="text_8">
      <!-- 70 -->
      <g transform="translate(327.988149 211.6933) scale(0.18 -0.18)">
       <defs>
        <path id="CMSS17-37" d="M 1389 3776 
C 1466 3776 1542 3776 1619 3776 
L 2355 3776 
C 1440 2711 915 1365 915 -32 
L 1427 -32 
C 1427 1323 1875 2696 2752 3795 
L 2752 4209 
L 250 4209 
L 250 3776 
L 1389 3776 
z
" transform="scale(0.015625)"/>
       </defs>
       <use xlink:href="#CMSS17-37" transform="scale(0.996264)"/>
       <use xlink:href="#CMSS17-30" transform="translate(46.843624 0) scale(0.996264)"/>
      </g>
     </g>
    </g>
    <g id="xtick_9">
     <g id="line2d_17">
      <path d="M 375.48 192.24 
L 375.48 25.92 
" clip-path="url(#p0d4b544ed2)" style="fill: none; stroke: #b0b0b0; stroke-opacity: 0.4; stroke-width: 0.8; stroke-linecap: square"/>
     </g>
     <g id="line2d_18">
      <g>
       <use xlink:href="#m788efffbe7" x="375.48" y="192.24" style="stroke: #000000; stroke-width: 0.8"/>
      </g>
     </g>
     <g id="text_9">
      <!-- 80 -->
      <g transform="translate(367.048149 211.6933) scale(0.18 -0.18)">
       <defs>
        <path id="CMSS17-38" d="M 1933 2222 
C 2419 2380 2669 2760 2669 3134 
C 2669 3722 2157 4229 1504 4229 
C 826 4229 333 3708 333 3144 
C 333 2780 576 2403 1069 2241 
C 442 1997 250 1512 250 1149 
C 250 446 819 -128 1498 -128 
C 2202 -128 2752 455 2752 1138 
C 2752 1557 2502 2000 1933 2222 
z
M 1504 2432 
C 1075 2432 787 2712 787 3136 
C 787 3566 1075 3840 1504 3840 
C 1901 3840 2214 3591 2214 3136 
C 2214 2687 1907 2432 1504 2432 
z
M 1504 267 
C 1139 267 749 517 749 1156 
C 749 1813 1184 2043 1498 2043 
C 1843 2043 2253 1800 2253 1156 
C 2253 491 1830 267 1504 267 
z
" transform="scale(0.015625)"/>
       </defs>
       <use xlink:href="#CMSS17-38" transform="scale(0.996264)"/>
       <use xlink:href="#CMSS17-30" transform="translate(46.843624 0) scale(0.996264)"/>
      </g>
     </g>
    </g>
    <g id="xtick_10">
     <g id="line2d_19">
      <path d="M 414.54 192.24 
L 414.54 25.92 
" clip-path="url(#p0d4b544ed2)" style="fill: none; stroke: #b0b0b0; stroke-opacity: 0.4; stroke-width: 0.8; stroke-linecap: square"/>
     </g>
     <g id="line2d_20">
      <g>
       <use xlink:href="#m788efffbe7" x="414.54" y="192.24" style="stroke: #000000; stroke-width: 0.8"/>
      </g>
     </g>
     <g id="text_10">
      <!-- 90 -->
      <g transform="translate(406.108149 211.6933) scale(0.18 -0.18)">
       <defs>
        <path id="CMSS17-39" d="M 435 174 
C 614 21 845 -128 1235 -128 
C 2010 -128 2752 721 2752 2095 
C 2752 3932 1952 4229 1523 4229 
C 1094 4229 819 4041 582 3741 
C 301 3397 250 3090 250 2733 
C 250 2307 326 2045 506 1745 
C 749 1357 973 1275 1222 1275 
C 1600 1275 1978 1459 2234 1776 
C 2189 902 1798 267 1235 267 
C 1005 267 819 339 634 516 
L 435 174 
z
M 2214 2746 
C 2221 2703 2221 2622 2221 2596 
C 2221 2074 1914 1664 1466 1664 
C 1171 1664 1018 1813 902 2006 
C 762 2249 755 2485 755 2733 
C 755 2976 755 3244 934 3511 
C 1069 3703 1235 3840 1523 3840 
C 2112 3840 2208 3000 2214 2746 
z
" transform="scale(0.015625)"/>
       </defs>
       <use xlink:href="#CMSS17-39" transform="scale(0.996264)"/>
       <use xlink:href="#CMSS17-30" transform="translate(46.843624 0) scale(0.996264)"/>
      </g>
     </g>
    </g>
    <g id="xtick_11">
     <g id="line2d_21">
      <path d="M 453.6 192.24 
L 453.6 25.92 
" clip-path="url(#p0d4b544ed2)" style="fill: none; stroke: #b0b0b0; stroke-opacity: 0.4; stroke-width: 0.8; stroke-linecap: square"/>
     </g>
     <g id="line2d_22">
      <g>
       <use xlink:href="#m788efffbe7" x="453.6" y="192.24" style="stroke: #000000; stroke-width: 0.8"/>
      </g>
     </g>
     <g id="text_11">
      <!-- 100 -->
      <g transform="translate(440.952223 211.6933) scale(0.18 -0.18)">
       <use xlink:href="#CMSS17-31" transform="scale(0.996264)"/>
       <use xlink:href="#CMSS17-30" transform="translate(46.843624 0) scale(0.996264)"/>
       <use xlink:href="#CMSS17-30" transform="translate(93.687247 0) scale(0.996264)"/>
      </g>
     </g>
    </g>
    <g id="text_12">
     <!-- Iteration, $\tau$ -->
     <g transform="translate(219.711264 231.634664) scale(0.18 -0.18)">
      <defs>
       <path id="CMSS17-49" d="M 1094 4416 
L 557 4416 
L 557 0 
L 1094 0 
L 1094 4416 
z
" transform="scale(0.015625)"/>
       <path id="CMSS17-74" d="M 1069 2368 
L 1901 2368 
L 1901 2737 
L 1069 2737 
L 1069 3520 
L 614 3520 
L 614 2737 
L 109 2737 
L 109 2368 
L 602 2368 
L 602 749 
C 602 384 685 -64 1107 -64 
C 1427 -64 1722 25 2003 172 
L 1901 548 
C 1747 414 1562 337 1363 337 
C 1082 337 1069 696 1069 856 
L 1069 2368 
z
" transform="scale(0.015625)"/>
       <path id="CMSS17-65" d="M 2502 1377 
C 2502 1590 2490 2003 2285 2345 
C 2061 2713 1696 2816 1421 2816 
C 755 2816 192 2188 192 1375 
C 192 582 774 -64 1510 -64 
C 1798 -64 2150 19 2470 248 
C 2470 274 2458 414 2451 420 
C 2451 433 2432 630 2432 656 
C 2125 407 1773 325 1517 325 
C 1107 325 666 667 646 1377 
L 2502 1377 
z
M 698 1728 
C 781 2084 1062 2421 1421 2421 
C 1517 2421 1965 2421 2080 1728 
L 698 1728 
z
" transform="scale(0.015625)"/>
       <path id="CMSS17-72" d="M 954 1363 
C 954 1965 1395 2368 1958 2368 
L 1958 2789 
C 1549 2789 1165 2585 934 2253 
L 934 2758 
L 480 2758 
L 480 0 
L 954 0 
L 954 1363 
z
" transform="scale(0.015625)"/>
       <path id="CMSS17-61" d="M 2406 1791 
C 2406 2392 1978 2808 1402 2808 
C 1120 2808 813 2757 461 2553 
L 499 2135 
C 659 2248 934 2432 1395 2432 
C 1722 2432 1920 2180 1920 1782 
L 1920 1536 
C 896 1536 256 1238 256 726 
C 256 461 416 -64 947 -64 
C 1043 -64 1562 -64 1933 217 
L 1933 -19 
L 2406 -19 
L 2406 1791 
z
M 1920 816 
C 1920 701 1920 548 1728 434 
C 1562 325 1350 325 1261 325 
C 941 325 723 511 723 744 
C 723 1211 1722 1211 1920 1211 
L 1920 816 
z
" transform="scale(0.015625)"/>
       <path id="CMSS17-69" d="M 979 4183 
L 442 4183 
L 442 3648 
L 979 3648 
L 979 4183 
z
M 947 2739 
L 474 2739 
L 474 0 
L 947 0 
L 947 2739 
z
" transform="scale(0.015625)"/>
       <path id="CMSS17-6f" d="M 2829 1356 
C 2829 2176 2221 2816 1504 2816 
C 768 2816 173 2157 173 1356 
C 173 544 787 -64 1498 -64 
C 2227 -64 2829 563 2829 1356 
z
M 1504 337 
C 1050 337 659 709 659 1408 
C 659 2151 1114 2427 1498 2427 
C 1914 2427 2342 2126 2342 1408 
C 2342 683 1926 337 1504 337 
z
" transform="scale(0.015625)"/>
       <path id="CMSS17-6e" d="M 2618 1877 
C 2618 2283 2522 2816 1798 2816 
C 1389 2816 1120 2606 941 2389 
L 941 2758 
L 474 2758 
L 474 0 
L 960 0 
L 960 1559 
C 960 1964 1114 2428 1549 2428 
C 2112 2428 2131 2048 2131 1829 
L 2131 0 
L 2618 0 
L 2618 1877 
z
" transform="scale(0.015625)"/>
       <path id="CMSS17-2c" d="M 1088 6 
L 1088 510 
L 576 510 
L 576 0 
L 736 0 
L 570 -800 
L 826 -800 
L 1088 6 
z
" transform="scale(0.015625)"/>
       <path id="CMMI12-1c" d="M 1837 2408 
L 2899 2408 
C 2982 2408 3194 2408 3194 2612 
C 3194 2752 3072 2752 2957 2752 
L 1197 2752 
C 1050 2752 832 2752 538 2440 
C 371 2255 166 1917 166 1879 
C 166 1841 198 1828 237 1828 
C 282 1828 288 1847 320 1885 
C 653 2408 986 2408 1146 2408 
L 1677 2408 
L 1011 223 
C 979 127 979 114 979 95 
C 979 25 1024 -64 1152 -64 
C 1350 -64 1382 108 1402 203 
L 1837 2408 
z
" transform="scale(0.015625)"/>
      </defs>
      <use xlink:href="#CMSS17-49" transform="scale(0.996264)"/>
      <use xlink:href="#CMSS17-74" transform="translate(25.783926 0) scale(0.996264)"/>
      <use xlink:href="#CMSS17-65" transform="translate(59.615492 0) scale(0.996264)"/>
      <use xlink:href="#CMSS17-72" transform="translate(101.254314 0) scale(0.996264)"/>
      <use xlink:href="#CMSS17-61" transform="translate(133.164087 0) scale(0.996264)"/>
      <use xlink:href="#CMSS17-74" transform="translate(178.086007 0) scale(0.996264)"/>
      <use xlink:href="#CMSS17-69" transform="translate(211.917574 0) scale(0.996264)"/>
      <use xlink:href="#CMSS17-6f" transform="translate(234.098297 0) scale(0.996264)"/>
      <use xlink:href="#CMSS17-6e" transform="translate(280.941921 0) scale(0.996264)"/>
      <use xlink:href="#CMSS17-2c" transform="translate(329.146864 0) scale(0.996264)"/>
      <use xlink:href="#CMMI12-1c" transform="translate(386.400181 0) scale(0.996264)"/>
     </g>
    </g>
   </g>
   <g id="matplotlib.axis_2">
    <g id="ytick_1">
     <g id="line2d_23">
      <path d="M 63 184.68 
L 453.6 184.68 
" clip-path="url(#p0d4b544ed2)" style="fill: none; stroke: #b0b0b0; stroke-opacity: 0.4; stroke-width: 0.8; stroke-linecap: square"/>
     </g>
     <g id="line2d_24">
      <defs>
       <path id="m429c04121e" d="M 0 0 
L -3.5 0 
" style="stroke: #000000; stroke-width: 0.8"/>
      </defs>
      <g>
       <use xlink:href="#m429c04121e" x="63" y="184.68" style="stroke: #000000; stroke-width: 0.8"/>
      </g>
     </g>
     <g id="text_13">
      <!-- 0 -->
      <g transform="translate(47.568149 190.90665) scale(0.18 -0.18)">
       <use xlink:href="#CMSS17-30" transform="scale(0.996264)"/>
      </g>
     </g>
    </g>
    <g id="ytick_2">
     <g id="line2d_25">
      <path d="M 63 111.219229 
L 453.6 111.219229 
" clip-path="url(#p0d4b544ed2)" style="fill: none; stroke: #b0b0b0; stroke-opacity: 0.4; stroke-width: 0.8; stroke-linecap: square"/>
     </g>
     <g id="line2d_26">
      <g>
       <use xlink:href="#m429c04121e" x="63" y="111.219229" style="stroke: #000000; stroke-width: 0.8"/>
      </g>
     </g>
     <g id="text_14">
      <!-- 0.5 -->
      <g transform="translate(34.451945 117.445879) scale(0.18 -0.18)">
       <defs>
        <path id="CMSS17-2e" d="M 1088 510 
L 576 510 
L 576 0 
L 1088 0 
L 1088 510 
z
" transform="scale(0.015625)"/>
       </defs>
       <use xlink:href="#CMSS17-30" transform="scale(0.996264)"/>
       <use xlink:href="#CMSS17-2e" transform="translate(46.843624 0) scale(0.996264)"/>
       <use xlink:href="#CMSS17-35" transform="translate(72.867828 0) scale(0.996264)"/>
      </g>
     </g>
    </g>
    <g id="ytick_3">
     <g id="line2d_27">
      <path d="M 63 37.758458 
L 453.6 37.758458 
" clip-path="url(#p0d4b544ed2)" style="fill: none; stroke: #b0b0b0; stroke-opacity: 0.4; stroke-width: 0.8; stroke-linecap: square"/>
     </g>
     <g id="line2d_28">
      <g>
       <use xlink:href="#m429c04121e" x="63" y="37.758458" style="stroke: #000000; stroke-width: 0.8"/>
      </g>
     </g>
     <g id="text_15">
      <!-- 1 -->
      <g transform="translate(47.568149 43.985108) scale(0.18 -0.18)">
       <use xlink:href="#CMSS17-31" transform="scale(0.996264)"/>
      </g>
     </g>
    </g>
    <g id="text_16">
     <!-- Regret, $r_\tau$ -->
     <g transform="translate(26.963881 143.923253) rotate(-90) scale(0.18 -0.18)">
      <defs>
       <path id="CMSS17-52" d="M 2522 2109 
L 2534 2115 
C 3533 2459 3539 3147 3539 3268 
C 3539 3873 2925 4453 2003 4453 
L 570 4453 
L 570 32 
L 1094 32 
L 1094 2048 
L 2035 2048 
L 3168 32 
L 3706 32 
L 2522 2109 
z
M 1094 2437 
L 1094 4096 
L 1933 4096 
C 2746 4096 3034 3637 3034 3267 
C 3034 2922 2778 2437 1933 2437 
L 1094 2437 
z
" transform="scale(0.015625)"/>
       <path id="CMSS17-67" d="M 2848 2808 
C 2483 2808 2170 2738 1914 2617 
C 1702 2777 1485 2808 1338 2808 
C 781 2808 358 2349 358 1814 
C 358 1468 550 1207 563 1195 
C 448 1035 384 863 384 672 
C 384 448 474 289 544 200 
C 211 -3 166 -314 166 -435 
C 166 -898 749 -1280 1498 -1280 
C 2253 -1280 2835 -898 2835 -428 
C 2835 448 1856 448 1587 448 
L 1069 448 
C 973 448 717 448 717 791 
C 717 921 774 1004 781 1010 
C 877 940 1075 832 1338 832 
C 1869 832 2310 1278 2310 1827 
C 2310 2132 2170 2355 2112 2432 
L 2131 2432 
C 2150 2432 2419 2432 2515 2432 
C 2720 2432 2739 2429 2918 2419 
L 2848 2808 
z
M 1338 1182 
C 1120 1182 813 1315 813 1823 
C 813 2375 1165 2464 1331 2464 
C 1549 2464 1856 2331 1856 1823 
C 1856 1271 1504 1182 1338 1182 
z
M 1581 -10 
C 1734 -10 2381 -10 2381 -442 
C 2381 -714 1984 -929 1504 -929 
C 1018 -929 621 -720 621 -435 
C 621 -403 621 -10 1062 -10 
L 1581 -10 
z
" transform="scale(0.015625)"/>
       <path id="CMMI12-72" d="M 2490 2612 
C 2291 2574 2189 2433 2189 2293 
C 2189 2139 2310 2088 2400 2088 
C 2579 2088 2726 2242 2726 2433 
C 2726 2638 2528 2816 2208 2816 
C 1952 2816 1658 2701 1389 2312 
C 1344 2650 1088 2816 832 2816 
C 582 2816 454 2625 378 2484 
C 269 2254 173 1871 173 1839 
C 173 1814 198 1782 243 1782 
C 294 1782 301 1788 339 1935 
C 435 2318 557 2689 813 2689 
C 966 2689 1011 2580 1011 2395 
C 1011 2254 947 2005 902 1807 
L 723 1118 
C 698 996 627 709 595 594 
C 550 428 480 128 480 96 
C 480 6 550 -64 646 -64 
C 717 -64 838 -19 877 109 
C 896 160 1133 1124 1171 1271 
C 1203 1411 1242 1546 1274 1686 
C 1299 1775 1325 1878 1344 1961 
C 1363 2018 1536 2331 1696 2472 
C 1773 2542 1939 2689 2202 2689 
C 2304 2689 2406 2670 2490 2612 
z
" transform="scale(0.015625)"/>
      </defs>
      <use xlink:href="#CMSS17-52" transform="scale(0.996264)"/>
      <use xlink:href="#CMSS17-65" transform="translate(60.416155 0) scale(0.996264)"/>
      <use xlink:href="#CMSS17-67" transform="translate(102.054977 0) scale(0.996264)"/>
      <use xlink:href="#CMSS17-72" transform="translate(148.8986 0) scale(0.996264)"/>
      <use xlink:href="#CMSS17-65" transform="translate(180.808373 0) scale(0.996264)"/>
      <use xlink:href="#CMSS17-74" transform="translate(222.447195 0) scale(0.996264)"/>
      <use xlink:href="#CMSS17-2c" transform="translate(256.278762 0) scale(0.996264)"/>
      <use xlink:href="#CMMI12-72" transform="translate(313.532079 0) scale(0.996264)"/>
      <use xlink:href="#CMMI12-1c" transform="translate(357.492974 -14.943915) scale(0.697382)"/>
     </g>
    </g>
   </g>
   <g id="line2d_29">
    <path d="M 66.906 150.598281 
L 70.812 155.111446 
L 74.718 157.552395 
L 78.624 159.099247 
L 82.53 161.542341 
L 86.436 162.328695 
L 90.342 162.657957 
L 94.248 163.280174 
L 98.154 165.202804 
L 102.06 166.166592 
L 105.966 166.361926 
L 109.872 166.064389 
L 113.778 166.01577 
L 117.684 167.534543 
L 121.59 168.314856 
L 125.496 169.51321 
L 129.402 168.535046 
L 133.308 169.758958 
L 137.214 168.908598 
L 141.12 170.924087 
L 145.026 169.473244 
L 148.932 170.500401 
L 152.838 171.46564 
L 156.744 171.391395 
L 160.65 171.299965 
L 164.556 171.337607 
L 168.462 173.050241 
L 172.368 173.138591 
L 176.274 173.822729 
L 180.18 172.278458 
L 184.086 173.458762 
L 187.992 175.078574 
L 191.898 173.275922 
L 195.804 173.835767 
L 199.71 174.206061 
L 203.616 175.138677 
L 207.522 175.005793 
L 211.428 174.739002 
L 215.334 174.703102 
L 219.24 175.067933 
L 223.146 174.850802 
L 227.052 176.372036 
L 230.958 176.458972 
L 234.864 176.180692 
L 238.77 176.273809 
L 242.676 177.428349 
L 246.582 177.573739 
L 250.488 176.833797 
L 254.394 176.16959 
L 258.3 178.234777 
L 262.206 177.432543 
L 266.112 178.40371 
L 270.018 179.010432 
L 273.924 178.103 
L 277.83 178.796702 
L 281.736 178.39238 
L 285.642 178.785826 
L 289.548 178.847081 
L 293.454 179.468671 
L 297.36 178.78113 
L 301.266 178.984898 
L 305.172 178.792174 
L 309.078 179.622723 
L 312.984 179.411041 
L 316.89 179.909035 
L 320.796 179.865575 
L 324.702 179.904443 
L 328.608 180.277806 
L 332.514 180.26542 
L 336.42 180.558831 
L 340.326 180.995228 
L 344.232 181.171919 
L 348.138 181.289993 
L 352.044 181.291091 
L 355.95 181.091762 
L 359.856 181.452625 
L 363.762 181.506261 
L 367.668 181.819832 
L 371.574 181.99231 
L 375.48 182.132324 
L 379.386 182.176818 
L 383.292 182.129863 
L 387.198 182.483616 
L 391.104 182.604197 
L 395.01 182.764558 
L 398.916 182.865242 
L 402.822 183.012709 
L 406.728 183.06102 
L 410.634 183.297792 
L 414.54 183.421457 
L 418.446 183.509515 
L 422.352 183.580625 
L 426.258 183.826913 
L 430.164 184.005207 
L 434.07 184.150198 
L 437.976 184.197228 
L 441.882 184.311435 
L 445.788 184.442522 
L 449.694 184.556061 
L 453.6 184.68 
" clip-path="url(#p0d4b544ed2)" style="fill: none; stroke: #1f77b4; stroke-width: 1.5; stroke-linecap: square"/>
   </g>
   <g id="line2d_30">
    <path d="M 66.906 116.190687 
L 70.812 123.666624 
L 74.718 128.272567 
L 78.624 130.508505 
L 82.53 136.860067 
L 86.436 140.66697 
L 90.342 141.074485 
L 94.248 142.470492 
L 98.154 144.659674 
L 102.06 147.002643 
L 105.966 146.647901 
L 109.872 148.11793 
L 113.778 147.751439 
L 117.684 152.281754 
L 121.59 150.104113 
L 125.496 152.834558 
L 129.402 150.872514 
L 133.308 154.480161 
L 137.214 153.105151 
L 141.12 157.430769 
L 145.026 155.688512 
L 148.932 155.474882 
L 152.838 154.234432 
L 156.744 156.00077 
L 160.65 158.293254 
L 164.556 158.526185 
L 168.462 159.429364 
L 172.368 160.346426 
L 176.274 159.092873 
L 180.18 161.677993 
L 184.086 162.88252 
L 187.992 161.350925 
L 191.898 161.731801 
L 195.804 163.9866 
L 199.71 163.376427 
L 203.616 165.083426 
L 207.522 163.858893 
L 211.428 165.121129 
L 215.334 166.107118 
L 219.24 166.137942 
L 223.146 167.531709 
L 227.052 165.862588 
L 230.958 167.63051 
L 234.864 166.768637 
L 238.77 168.922297 
L 242.676 167.608026 
L 246.582 169.239262 
L 250.488 169.322272 
L 254.394 170.208286 
L 258.3 170.068591 
L 262.206 169.797317 
L 266.112 170.960971 
L 270.018 170.414927 
L 273.924 171.450644 
L 277.83 170.930029 
L 281.736 173.333099 
L 285.642 171.925846 
L 289.548 171.760735 
L 293.454 173.65209 
L 297.36 174.524172 
L 301.266 174.285004 
L 305.172 174.90927 
L 309.078 174.367455 
L 312.984 174.76843 
L 316.89 175.24811 
L 320.796 175.897473 
L 324.702 175.58553 
L 328.608 175.880565 
L 332.514 175.685946 
L 336.42 177.265635 
L 340.326 177.205075 
L 344.232 178.35748 
L 348.138 177.197263 
L 352.044 178.725209 
L 355.95 178.156542 
L 359.856 177.94578 
L 363.762 178.445999 
L 367.668 178.636254 
L 371.574 178.878573 
L 375.48 179.559087 
L 379.386 179.708282 
L 383.292 179.813487 
L 387.198 180.448979 
L 391.104 180.431574 
L 395.01 180.85647 
L 398.916 181.118605 
L 402.822 181.187444 
L 406.728 182.238182 
L 410.634 181.686453 
L 414.54 182.215294 
L 418.446 182.292518 
L 422.352 182.711618 
L 426.258 182.832499 
L 430.164 183.120627 
L 434.07 183.309008 
L 437.976 183.639072 
L 441.882 183.962942 
L 445.788 184.207487 
L 449.694 184.4387 
L 453.6 184.68 
" clip-path="url(#p0d4b544ed2)" style="fill: none; stroke: #ff7f0e; stroke-width: 1.5; stroke-linecap: square"/>
   </g>
   <g id="line2d_31">
    <path d="M 66.906 78.687198 
L 70.812 95.498983 
L 74.718 107.947919 
L 78.624 104.86484 
L 82.53 111.715662 
L 86.436 111.687151 
L 90.342 119.008827 
L 94.248 124.898167 
L 98.154 125.341615 
L 102.06 127.361091 
L 105.966 131.536873 
L 109.872 124.801473 
L 113.778 129.151682 
L 117.684 133.395594 
L 121.59 134.478118 
L 125.496 132.221306 
L 129.402 138.99986 
L 133.308 137.375719 
L 137.214 137.269513 
L 141.12 135.618745 
L 145.026 142.635791 
L 148.932 144.958499 
L 152.838 147.564677 
L 156.744 143.630177 
L 160.65 148.335088 
L 164.556 146.089418 
L 168.462 147.666894 
L 172.368 144.188621 
L 176.274 145.312394 
L 180.18 147.309234 
L 184.086 146.534678 
L 187.992 151.042079 
L 191.898 150.029433 
L 195.804 152.393154 
L 199.71 156.26965 
L 203.616 155.688889 
L 207.522 155.937658 
L 211.428 155.622081 
L 215.334 158.194798 
L 219.24 156.049128 
L 223.146 158.644211 
L 227.052 158.165449 
L 230.958 158.767483 
L 234.864 160.184637 
L 238.77 159.121349 
L 242.676 160.357517 
L 246.582 160.885477 
L 250.488 161.329651 
L 254.394 161.352183 
L 258.3 162.172413 
L 262.206 163.211969 
L 266.112 163.425428 
L 270.018 164.579008 
L 273.924 165.144824 
L 277.83 166.375971 
L 281.736 163.946394 
L 285.642 166.09774 
L 289.548 168.319443 
L 293.454 168.797798 
L 297.36 168.782106 
L 301.266 167.069741 
L 305.172 169.741649 
L 309.078 168.26868 
L 312.984 170.019561 
L 316.89 170.522589 
L 320.796 170.811284 
L 324.702 172.143121 
L 328.608 170.536648 
L 332.514 171.498825 
L 336.42 172.438258 
L 340.326 172.985372 
L 344.232 171.054546 
L 348.138 173.116899 
L 352.044 176.100857 
L 355.95 175.430262 
L 359.856 174.43755 
L 363.762 175.236428 
L 367.668 176.588499 
L 371.574 177.444071 
L 375.48 176.276385 
L 379.386 177.071601 
L 383.292 177.296566 
L 387.198 177.639133 
L 391.104 178.348149 
L 395.01 178.740866 
L 398.916 179.520327 
L 402.822 179.821788 
L 406.728 180.211997 
L 410.634 180.938429 
L 414.54 180.735542 
L 418.446 181.350798 
L 422.352 181.782287 
L 426.258 181.943244 
L 430.164 182.589599 
L 434.07 182.825554 
L 437.976 183.360966 
L 441.882 183.65055 
L 445.788 183.889833 
L 449.694 184.297536 
L 453.6 184.68 
" clip-path="url(#p0d4b544ed2)" style="fill: none; stroke: #2ca02c; stroke-width: 1.5; stroke-linecap: square"/>
   </g>
   <g id="line2d_32">
    <path d="M 66.906 45.642144 
L 70.812 60.531266 
L 74.718 69.945652 
L 78.624 88.074819 
L 82.53 90.764685 
L 86.436 95.64172 
L 90.342 93.129267 
L 94.248 104.207116 
L 98.154 103.597677 
L 102.06 106.270959 
L 105.966 105.136245 
L 109.872 113.652475 
L 113.778 113.358667 
L 117.684 116.121472 
L 121.59 117.987616 
L 125.496 122.380568 
L 129.402 117.301487 
L 133.308 127.824123 
L 137.214 121.393802 
L 141.12 126.262362 
L 145.026 128.609053 
L 148.932 129.787557 
L 152.838 126.983405 
L 156.744 134.84203 
L 160.65 135.8656 
L 164.556 137.130998 
L 168.462 133.228421 
L 172.368 136.530958 
L 176.274 133.587172 
L 180.18 137.957311 
L 184.086 137.021794 
L 187.992 142.964463 
L 191.898 140.743023 
L 195.804 145.941379 
L 199.71 143.9847 
L 203.616 147.665873 
L 207.522 145.927719 
L 211.428 147.075603 
L 215.334 143.454621 
L 219.24 147.567722 
L 223.146 148.212417 
L 227.052 146.585983 
L 230.958 149.819545 
L 234.864 155.655022 
L 238.77 153.442293 
L 242.676 150.862177 
L 246.582 154.467612 
L 250.488 157.818832 
L 254.394 155.132391 
L 258.3 153.750794 
L 262.206 154.300946 
L 266.112 154.097196 
L 270.018 156.479112 
L 273.924 158.447879 
L 277.83 162.40982 
L 281.736 162.370624 
L 285.642 160.6592 
L 289.548 161.654977 
L 293.454 161.138906 
L 297.36 161.756063 
L 301.266 162.914426 
L 305.172 165.393935 
L 309.078 161.869376 
L 312.984 165.795617 
L 316.89 165.13968 
L 320.796 168.156294 
L 324.702 166.243789 
L 328.608 167.569409 
L 332.514 167.48204 
L 336.42 169.168699 
L 340.326 169.45048 
L 344.232 170.520206 
L 348.138 169.116989 
L 352.044 169.591591 
L 355.95 171.142051 
L 359.856 172.756687 
L 363.762 171.64043 
L 367.668 172.914092 
L 371.574 174.76634 
L 375.48 173.024516 
L 379.386 175.006048 
L 383.292 175.730586 
L 387.198 175.697934 
L 391.104 175.36719 
L 395.01 177.056231 
L 398.916 178.281559 
L 402.822 177.87508 
L 406.728 178.686236 
L 410.634 178.813351 
L 414.54 179.581466 
L 418.446 180.491934 
L 422.352 180.752568 
L 426.258 181.195807 
L 430.164 181.356557 
L 434.07 182.161862 
L 437.976 182.760235 
L 441.882 183.175671 
L 445.788 183.645389 
L 449.694 184.15999 
L 453.6 184.68 
" clip-path="url(#p0d4b544ed2)" style="fill: none; stroke: #d62728; stroke-width: 1.5; stroke-linecap: square"/>
   </g>
   <g id="patch_3">
    <path d="M 63 192.24 
L 63 25.92 
" style="fill: none; stroke: #000000; stroke-width: 0.8; stroke-linejoin: miter; stroke-linecap: square"/>
   </g>
   <g id="patch_4">
    <path d="M 453.6 192.24 
L 453.6 25.92 
" style="fill: none; stroke: #000000; stroke-width: 0.8; stroke-linejoin: miter; stroke-linecap: square"/>
   </g>
   <g id="patch_5">
    <path d="M 63 192.24 
L 453.6 192.24 
" style="fill: none; stroke: #000000; stroke-width: 0.8; stroke-linejoin: miter; stroke-linecap: square"/>
   </g>
   <g id="patch_6">
    <path d="M 63 25.92 
L 453.6 25.92 
" style="fill: none; stroke: #000000; stroke-width: 0.8; stroke-linejoin: miter; stroke-linecap: square"/>
   </g>
   <g id="legend_1">
    <g id="line2d_33">
     <path d="M 326.977298 43.42 
L 340.977298 43.42 
L 354.977298 43.42 
" style="fill: none; stroke: #1f77b4; stroke-width: 1.5; stroke-linecap: square"/>
    </g>
    <g id="text_17">
     <!-- Benchmark 1 -->
     <g transform="translate(366.177298 48.32) scale(0.14 -0.14)">
      <defs>
       <path id="CMSS17-42" d="M 570 4416 
L 570 0 
L 2163 0 
C 3034 0 3667 574 3667 1200 
C 3667 1685 3251 2176 2502 2317 
C 3334 2558 3501 3040 3501 3313 
C 3501 3883 2874 4416 1997 4416 
L 570 4416 
z
M 1088 2496 
L 1088 4059 
L 1824 4059 
C 2483 4059 3002 3724 3002 3306 
C 3002 2926 2592 2496 1766 2496 
L 1088 2496 
z
M 1088 357 
L 1088 2107 
L 1939 2107 
C 2630 2107 3162 1679 3162 1206 
C 3162 772 2694 357 1984 357 
L 1088 357 
z
" transform="scale(0.015625)"/>
       <path id="CMSS17-63" d="M 2464 2541 
C 2464 2585 2170 2714 2093 2739 
C 1882 2816 1613 2816 1542 2816 
C 710 2816 211 2093 211 1363 
C 211 595 768 -64 1517 -64 
C 1946 -64 2253 76 2502 242 
L 2464 664 
C 2189 453 1869 337 1523 337 
C 1024 337 698 774 698 1369 
C 698 1831 909 2414 1549 2414 
C 1901 2414 2099 2343 2394 2145 
L 2464 2541 
z
" transform="scale(0.015625)"/>
       <path id="CMSS17-68" d="M 2618 1891 
C 2618 2292 2522 2820 1798 2820 
C 1395 2820 1133 2623 947 2407 
L 947 4448 
L 474 4448 
L 474 32 
L 960 32 
L 960 1573 
C 960 1973 1114 2432 1549 2432 
C 2112 2432 2131 2056 2131 1839 
L 2131 32 
L 2618 32 
L 2618 1891 
z
" transform="scale(0.015625)"/>
       <path id="CMSS17-6d" d="M 4288 1877 
C 4288 2308 4179 2816 3462 2816 
C 2982 2816 2694 2516 2566 2331 
C 2451 2670 2182 2816 1798 2816 
C 1363 2816 1088 2568 941 2389 
L 941 2758 
L 474 2758 
L 474 0 
L 960 0 
L 960 1559 
C 960 1939 1101 2428 1555 2428 
C 2138 2428 2138 2016 2138 1829 
L 2138 0 
L 2624 0 
L 2624 1559 
C 2624 1939 2765 2428 3219 2428 
C 3802 2428 3802 2016 3802 1829 
L 3802 0 
L 4288 0 
L 4288 1877 
z
" transform="scale(0.015625)"/>
       <path id="CMSS17-6b" d="M 1696 1688 
L 2688 2739 
L 2074 2739 
L 954 1554 
L 954 4416 
L 480 4416 
L 480 0 
L 947 0 
L 947 892 
L 1376 1344 
L 2278 0 
L 2822 0 
L 1696 1688 
z
" transform="scale(0.015625)"/>
      </defs>
      <use xlink:href="#CMSS17-42" transform="scale(0.996264)"/>
      <use xlink:href="#CMSS17-65" transform="translate(62.33804 0) scale(0.996264)"/>
      <use xlink:href="#CMSS17-6e" transform="translate(103.976862 0) scale(0.996264)"/>
      <use xlink:href="#CMSS17-63" transform="translate(152.181805 0) scale(0.996264)"/>
      <use xlink:href="#CMSS17-68" transform="translate(193.820627 0) scale(0.996264)"/>
      <use xlink:href="#CMSS17-6d" transform="translate(242.025571 0) scale(0.996264)"/>
      <use xlink:href="#CMSS17-61" transform="translate(316.254825 0) scale(0.996264)"/>
      <use xlink:href="#CMSS17-72" transform="translate(358.574292 0) scale(0.996264)"/>
      <use xlink:href="#CMSS17-6b" transform="translate(390.484064 0) scale(0.996264)"/>
      <use xlink:href="#CMSS17-31" transform="translate(467.315666 0) scale(0.996264)"/>
     </g>
    </g>
    <g id="line2d_34">
     <path d="M 326.977298 62.932028 
L 340.977298 62.932028 
L 354.977298 62.932028 
" style="fill: none; stroke: #ff7f0e; stroke-width: 1.5; stroke-linecap: square"/>
    </g>
    <g id="text_18">
     <!-- Benchmark 2 -->
     <g transform="translate(366.177298 67.832028) scale(0.14 -0.14)">
      <use xlink:href="#CMSS17-42" transform="scale(0.996264)"/>
      <use xlink:href="#CMSS17-65" transform="translate(62.33804 0) scale(0.996264)"/>
      <use xlink:href="#CMSS17-6e" transform="translate(103.976862 0) scale(0.996264)"/>
      <use xlink:href="#CMSS17-63" transform="translate(152.181805 0) scale(0.996264)"/>
      <use xlink:href="#CMSS17-68" transform="translate(193.820627 0) scale(0.996264)"/>
      <use xlink:href="#CMSS17-6d" transform="translate(242.025571 0) scale(0.996264)"/>
      <use xlink:href="#CMSS17-61" transform="translate(316.254825 0) scale(0.996264)"/>
      <use xlink:href="#CMSS17-72" transform="translate(358.574292 0) scale(0.996264)"/>
      <use xlink:href="#CMSS17-6b" transform="translate(390.484064 0) scale(0.996264)"/>
      <use xlink:href="#CMSS17-32" transform="translate(467.315666 0) scale(0.996264)"/>
     </g>
    </g>
    <g id="line2d_35">
     <path d="M 326.977298 82.444057 
L 340.977298 82.444057 
L 354.977298 82.444057 
" style="fill: none; stroke: #2ca02c; stroke-width: 1.5; stroke-linecap: square"/>
    </g>
    <g id="text_19">
     <!-- Benchmark 3 -->
     <g transform="translate(366.177298 87.344057) scale(0.14 -0.14)">
      <use xlink:href="#CMSS17-42" transform="scale(0.996264)"/>
      <use xlink:href="#CMSS17-65" transform="translate(62.33804 0) scale(0.996264)"/>
      <use xlink:href="#CMSS17-6e" transform="translate(103.976862 0) scale(0.996264)"/>
      <use xlink:href="#CMSS17-63" transform="translate(152.181805 0) scale(0.996264)"/>
      <use xlink:href="#CMSS17-68" transform="translate(193.820627 0) scale(0.996264)"/>
      <use xlink:href="#CMSS17-6d" transform="translate(242.025571 0) scale(0.996264)"/>
      <use xlink:href="#CMSS17-61" transform="translate(316.254825 0) scale(0.996264)"/>
      <use xlink:href="#CMSS17-72" transform="translate(358.574292 0) scale(0.996264)"/>
      <use xlink:href="#CMSS17-6b" transform="translate(390.484064 0) scale(0.996264)"/>
      <use xlink:href="#CMSS17-33" transform="translate(467.315666 0) scale(0.996264)"/>
     </g>
    </g>
    <g id="line2d_36">
     <path d="M 326.977298 101.956085 
L 340.977298 101.956085 
L 354.977298 101.956085 
" style="fill: none; stroke: #d62728; stroke-width: 1.5; stroke-linecap: square"/>
    </g>
    <g id="text_20">
     <!-- Benchmark 4 -->
     <g transform="translate(366.177298 106.856085) scale(0.14 -0.14)">
      <use xlink:href="#CMSS17-42" transform="scale(0.996264)"/>
      <use xlink:href="#CMSS17-65" transform="translate(62.33804 0) scale(0.996264)"/>
      <use xlink:href="#CMSS17-6e" transform="translate(103.976862 0) scale(0.996264)"/>
      <use xlink:href="#CMSS17-63" transform="translate(152.181805 0) scale(0.996264)"/>
      <use xlink:href="#CMSS17-68" transform="translate(193.820627 0) scale(0.996264)"/>
      <use xlink:href="#CMSS17-6d" transform="translate(242.025571 0) scale(0.996264)"/>
      <use xlink:href="#CMSS17-61" transform="translate(316.254825 0) scale(0.996264)"/>
      <use xlink:href="#CMSS17-72" transform="translate(358.574292 0) scale(0.996264)"/>
      <use xlink:href="#CMSS17-6b" transform="translate(390.484064 0) scale(0.996264)"/>
      <use xlink:href="#CMSS17-34" transform="translate(467.315666 0) scale(0.996264)"/>
     </g>
    </g>
   </g>
  </g>
 </g>
 <defs>
  <clipPath id="p0d4b544ed2">
   <rect x="63" y="25.92" width="390.6" height="166.32"/>
  </clipPath>
 </defs>
</svg>
