<?xml version="1.0" encoding="utf-8" standalone="no"?>
<!DOCTYPE svg PUBLIC "-//W3C//DTD SVG 1.1//EN"
  "http://www.w3.org/Graphics/SVG/1.1/DTD/svg11.dtd">
<svg xmlns:xlink="http://www.w3.org/1999/xlink" width="504pt" height="216pt" viewBox="0 0 504 216" xmlns="http://www.w3.org/2000/svg" version="1.1">
 <metadata>
  <rdf:RDF xmlns:dc="http://purl.org/dc/elements/1.1/" xmlns:cc="http://creativecommons.org/ns#" xmlns:rdf="http://www.w3.org/1999/02/22-rdf-syntax-ns#">
   <cc:Work>
    <dc:type rdf:resource="http://purl.org/dc/dcmitype/StillImage"/>
    <dc:date>2023-10-27T16:17:48.609264</dc:date>
    <dc:format>image/svg+xml</dc:format>
    <dc:creator>
     <cc:Agent>
      <dc:title>Matplotlib v3.8.0, https://matplotlib.org/</dc:title>
     </cc:Agent>
    </dc:creator>
   </cc:Work>
  </rdf:RDF>
 </metadata>
 <defs>
  <style type="text/css">*{stroke-linejoin: round; stroke-linecap: butt}</style>
 </defs>
 <g id="figure_1">
  <g id="patch_1">
   <path d="M 0 216 
L 504 216 
L 504 0 
L 0 0 
z
" style="fill: #ffffff"/>
  </g>
  <g id="axes_1">
   <g id="patch_2">
    <path d="M 63 192.24 
L 453.6 192.24 
L 453.6 25.92 
L 63 25.92 
z
" style="fill: #ffffff"/>
   </g>
   <g id="PolyCollection_1">
    <defs>
     <path id="mdf3a9fa600" d="M 66.906 -67.003065 
L 66.906 -62.184432 
L 70.812 -58.192097 
L 74.718 -54.776073 
L 78.624 -54.299335 
L 82.53 -52.194672 
L 86.436 -50.71581 
L 90.342 -50.232586 
L 94.248 -49.909662 
L 98.154 -48.081396 
L 102.06 -48.094963 
L 105.966 -47.554139 
L 109.872 -47.760782 
L 113.778 -47.31144 
L 117.684 -47.034571 
L 121.59 -44.979894 
L 125.496 -44.958265 
L 129.402 -43.093974 
L 133.308 -44.002097 
L 137.214 -43.830766 
L 141.12 -43.834452 
L 145.026 -42.578693 
L 148.932 -42.609269 
L 152.838 -41.960086 
L 156.744 -42.192907 
L 160.65 -41.597287 
L 164.556 -40.382903 
L 168.462 -40.35249 
L 172.368 -40.75866 
L 176.274 -41.10935 
L 180.18 -40.768503 
L 184.086 -40.555113 
L 187.992 -40.398715 
L 191.898 -40.360179 
L 195.804 -39.397933 
L 199.71 -39.81832 
L 203.616 -39.177647 
L 207.522 -39.001226 
L 211.428 -38.615368 
L 215.334 -38.285887 
L 219.24 -38.008655 
L 223.146 -39.339486 
L 227.052 -38.191424 
L 230.958 -37.456356 
L 234.864 -37.332198 
L 238.77 -37.629392 
L 242.676 -37.855231 
L 246.582 -37.13263 
L 250.488 -37.114066 
L 254.394 -37.322123 
L 258.3 -36.310419 
L 262.206 -36.520837 
L 266.112 -36.288313 
L 270.018 -36.208581 
L 273.924 -35.361289 
L 277.83 -35.944879 
L 281.736 -36.601054 
L 285.642 -36.605054 
L 289.548 -35.574319 
L 293.454 -36.325632 
L 297.36 -35.544215 
L 301.266 -35.076358 
L 305.172 -35.227542 
L 309.078 -34.932359 
L 312.984 -34.719803 
L 316.89 -35.440126 
L 320.796 -34.92264 
L 324.702 -34.894193 
L 328.608 -35.088191 
L 332.514 -34.294251 
L 336.42 -34.02905 
L 340.326 -34.337469 
L 344.232 -34.21631 
L 348.138 -33.593761 
L 352.044 -33.359592 
L 355.95 -33.510127 
L 359.856 -33.4453 
L 363.762 -33.258271 
L 367.668 -33.480738 
L 371.574 -33.527404 
L 375.48 -33.185526 
L 379.386 -33.089438 
L 383.292 -32.978377 
L 387.198 -32.765003 
L 391.104 -32.807554 
L 395.01 -32.804912 
L 398.916 -32.445048 
L 402.822 -32.785529 
L 406.728 -32.174513 
L 410.634 -32.213101 
L 414.54 -32.294702 
L 418.446 -32.130015 
L 422.352 -31.94311 
L 426.258 -32.09792 
L 430.164 -31.915318 
L 434.07 -31.726054 
L 437.976 -31.702697 
L 441.882 -31.579374 
L 445.788 -31.48259 
L 449.694 -31.423814 
L 453.6 -31.32 
L 453.6 -31.32 
L 453.6 -31.32 
L 449.694 -31.482352 
L 445.788 -31.62731 
L 441.882 -31.78552 
L 437.976 -31.92601 
L 434.07 -32.044657 
L 430.164 -32.287048 
L 426.258 -32.497503 
L 422.352 -32.578941 
L 418.446 -32.718743 
L 414.54 -32.998159 
L 410.634 -33.016677 
L 406.728 -33.045212 
L 402.822 -33.573619 
L 398.916 -33.389701 
L 395.01 -33.796914 
L 391.104 -34.063156 
L 387.198 -33.914807 
L 383.292 -34.387186 
L 379.386 -34.363791 
L 375.48 -34.54246 
L 371.574 -34.807793 
L 367.668 -34.915588 
L 363.762 -34.998027 
L 359.856 -35.050706 
L 355.95 -35.306827 
L 352.044 -35.156305 
L 348.138 -35.290464 
L 344.232 -36.066184 
L 340.326 -36.428916 
L 336.42 -36.229792 
L 332.514 -36.307691 
L 328.608 -37.211268 
L 324.702 -36.866181 
L 320.796 -37.38223 
L 316.89 -37.761026 
L 312.984 -37.391277 
L 309.078 -37.676322 
L 305.172 -37.838103 
L 301.266 -38.299524 
L 297.36 -38.921598 
L 293.454 -39.172821 
L 289.548 -38.379545 
L 285.642 -38.860709 
L 281.736 -39.375376 
L 277.83 -39.2742 
L 273.924 -39.282093 
L 270.018 -39.205076 
L 266.112 -39.47075 
L 262.206 -39.448136 
L 258.3 -40.42665 
L 254.394 -41.200431 
L 250.488 -40.977303 
L 246.582 -41.217036 
L 242.676 -42.028174 
L 238.77 -41.289453 
L 234.864 -41.892826 
L 230.958 -41.414169 
L 227.052 -42.114765 
L 223.146 -41.929764 
L 219.24 -42.239379 
L 215.334 -41.817752 
L 211.428 -43.21716 
L 207.522 -43.552239 
L 203.616 -43.896705 
L 199.71 -45.044609 
L 195.804 -44.34311 
L 191.898 -44.743442 
L 187.992 -44.520889 
L 184.086 -45.246852 
L 180.18 -45.187847 
L 176.274 -45.220443 
L 172.368 -46.04859 
L 168.462 -45.510943 
L 164.556 -46.545303 
L 160.65 -46.68082 
L 156.744 -47.382012 
L 152.838 -47.490967 
L 148.932 -47.936626 
L 145.026 -48.150683 
L 141.12 -49.120881 
L 137.214 -50.040416 
L 133.308 -49.381523 
L 129.402 -49.336949 
L 125.496 -51.354333 
L 121.59 -50.777541 
L 117.684 -51.990186 
L 113.778 -52.756242 
L 109.872 -53.334164 
L 105.966 -53.215342 
L 102.06 -54.845948 
L 98.154 -54.358433 
L 94.248 -56.357837 
L 90.342 -56.322213 
L 86.436 -57.625838 
L 82.53 -58.787616 
L 78.624 -61.296264 
L 74.718 -63.125939 
L 70.812 -66.159248 
L 66.906 -67.003065 
z
"/>
    </defs>
    <g clip-path="url(#p5557a1dcad)">
     <use xlink:href="#mdf3a9fa600" x="0" y="216" style="fill: #1f77b4; fill-opacity: 0.2"/>
    </g>
   </g>
   <g id="PolyCollection_2">
    <defs>
     <path id="m3367a66e1d" d="M 66.906 -105.755466 
L 66.906 -92.862723 
L 70.812 -83.980082 
L 74.718 -77.798943 
L 78.624 -72.817684 
L 82.53 -71.696518 
L 86.436 -71.752749 
L 90.342 -71.423726 
L 94.248 -67.145053 
L 98.154 -65.727286 
L 102.06 -63.414808 
L 105.966 -64.72723 
L 109.872 -62.021959 
L 113.778 -60.071279 
L 117.684 -59.412493 
L 121.59 -59.790032 
L 125.496 -58.628563 
L 129.402 -58.40525 
L 133.308 -55.910665 
L 137.214 -54.629024 
L 141.12 -52.547714 
L 145.026 -55.440747 
L 148.932 -52.291687 
L 152.838 -55.426074 
L 156.744 -52.175244 
L 160.65 -53.098161 
L 164.556 -53.980747 
L 168.462 -48.422984 
L 172.368 -49.920204 
L 176.274 -50.067527 
L 180.18 -47.542897 
L 184.086 -50.332377 
L 187.992 -47.741967 
L 191.898 -47.502048 
L 195.804 -49.362574 
L 199.71 -49.107933 
L 203.616 -48.892415 
L 207.522 -47.721951 
L 211.428 -46.636528 
L 215.334 -45.823828 
L 219.24 -43.275595 
L 223.146 -44.489062 
L 227.052 -45.193583 
L 230.958 -43.323898 
L 234.864 -46.155174 
L 238.77 -44.82978 
L 242.676 -42.060047 
L 246.582 -44.35161 
L 250.488 -43.373567 
L 254.394 -41.233795 
L 258.3 -42.62245 
L 262.206 -41.554149 
L 266.112 -41.15944 
L 270.018 -41.755393 
L 273.924 -41.118368 
L 277.83 -41.96819 
L 281.736 -41.648141 
L 285.642 -40.816722 
L 289.548 -39.915036 
L 293.454 -40.639611 
L 297.36 -40.540249 
L 301.266 -39.401441 
L 305.172 -37.821523 
L 309.078 -39.614674 
L 312.984 -39.002536 
L 316.89 -38.384276 
L 320.796 -38.564252 
L 324.702 -37.040586 
L 328.608 -38.183603 
L 332.514 -36.879973 
L 336.42 -37.528824 
L 340.326 -37.619188 
L 344.232 -37.703666 
L 348.138 -36.692794 
L 352.044 -36.328255 
L 355.95 -36.370683 
L 359.856 -36.095588 
L 363.762 -35.39931 
L 367.668 -35.65515 
L 371.574 -35.207994 
L 375.48 -35.468772 
L 379.386 -34.592121 
L 383.292 -34.407541 
L 387.198 -34.643622 
L 391.104 -34.492591 
L 395.01 -33.732718 
L 398.916 -34.029987 
L 402.822 -33.604233 
L 406.728 -33.6193 
L 410.634 -33.359963 
L 414.54 -33.197169 
L 418.446 -32.782376 
L 422.352 -33.005793 
L 426.258 -32.659744 
L 430.164 -32.298659 
L 434.07 -32.123736 
L 437.976 -32.061751 
L 441.882 -31.799136 
L 445.788 -31.700293 
L 449.694 -31.498824 
L 453.6 -31.32 
L 453.6 -31.32 
L 453.6 -31.32 
L 449.694 -31.61624 
L 445.788 -31.955333 
L 441.882 -32.255354 
L 437.976 -32.622805 
L 434.07 -32.820802 
L 430.164 -33.043574 
L 426.258 -33.598242 
L 422.352 -34.122621 
L 418.446 -34.099838 
L 414.54 -34.263339 
L 410.634 -34.914091 
L 406.728 -35.158793 
L 402.822 -35.660817 
L 398.916 -36.244572 
L 395.01 -35.653746 
L 391.104 -36.646586 
L 387.198 -37.450647 
L 383.292 -36.639276 
L 379.386 -37.26404 
L 375.48 -38.070676 
L 371.574 -37.713393 
L 367.668 -38.64646 
L 363.762 -38.581515 
L 359.856 -39.193687 
L 355.95 -39.999404 
L 352.044 -39.629872 
L 348.138 -40.417734 
L 344.232 -40.361721 
L 340.326 -41.427138 
L 336.42 -40.617115 
L 332.514 -41.333052 
L 328.608 -43.213777 
L 324.702 -41.606519 
L 320.796 -42.684487 
L 316.89 -43.748084 
L 312.984 -44.462863 
L 309.078 -43.472089 
L 305.172 -44.08882 
L 301.266 -44.813178 
L 297.36 -46.049442 
L 293.454 -45.872789 
L 289.548 -46.502841 
L 285.642 -45.703553 
L 281.736 -47.263515 
L 277.83 -47.833965 
L 273.924 -47.43516 
L 270.018 -48.369435 
L 266.112 -47.735003 
L 262.206 -47.007731 
L 258.3 -50.012748 
L 254.394 -48.983671 
L 250.488 -52.391283 
L 246.582 -52.030078 
L 242.676 -50.803855 
L 238.77 -50.674871 
L 234.864 -51.057117 
L 230.958 -50.834631 
L 227.052 -54.047438 
L 223.146 -53.496927 
L 219.24 -52.925049 
L 215.334 -53.96003 
L 211.428 -54.786295 
L 207.522 -56.883072 
L 203.616 -55.409529 
L 199.71 -56.83232 
L 195.804 -57.648265 
L 191.898 -56.031409 
L 187.992 -57.212375 
L 184.086 -59.859563 
L 180.18 -56.737066 
L 176.274 -60.83781 
L 172.368 -59.860339 
L 168.462 -58.662078 
L 164.556 -63.333124 
L 160.65 -62.426552 
L 156.744 -62.28227 
L 152.838 -65.47145 
L 148.932 -63.757631 
L 145.026 -64.679858 
L 141.12 -63.410249 
L 137.214 -66.323558 
L 133.308 -68.230595 
L 129.402 -71.683512 
L 125.496 -68.623512 
L 121.59 -69.558495 
L 117.684 -70.651608 
L 113.778 -75.079766 
L 109.872 -74.8649 
L 105.966 -77.8802 
L 102.06 -75.60521 
L 98.154 -77.426212 
L 94.248 -80.148115 
L 90.342 -82.291089 
L 86.436 -86.371731 
L 82.53 -81.817238 
L 78.624 -87.242935 
L 74.718 -92.679997 
L 70.812 -99.566881 
L 66.906 -105.755466 
z
"/>
    </defs>
    <g clip-path="url(#p5557a1dcad)">
     <use xlink:href="#m3367a66e1d" x="0" y="216" style="fill: #ff7f0e; fill-opacity: 0.2"/>
    </g>
   </g>
   <g id="PolyCollection_3">
    <defs>
     <path id="m25863f02ae" d="M 66.906 -142.240787 
L 66.906 -120.992026 
L 70.812 -106.413992 
L 74.718 -100.823682 
L 78.624 -95.501171 
L 82.53 -94.441362 
L 86.436 -90.694912 
L 90.342 -87.131997 
L 94.248 -88.387249 
L 98.154 -82.286901 
L 102.06 -88.603746 
L 105.966 -83.390939 
L 109.872 -78.832713 
L 113.778 -76.527238 
L 117.684 -78.047299 
L 121.59 -70.40111 
L 125.496 -72.302031 
L 129.402 -68.896018 
L 133.308 -67.719088 
L 137.214 -67.567885 
L 141.12 -66.146354 
L 145.026 -62.868836 
L 148.932 -65.444504 
L 152.838 -71.192673 
L 156.744 -60.61737 
L 160.65 -61.283883 
L 164.556 -66.878063 
L 168.462 -64.44979 
L 172.368 -60.618171 
L 176.274 -57.807754 
L 180.18 -60.970851 
L 184.086 -58.126474 
L 187.992 -60.445459 
L 191.898 -54.875759 
L 195.804 -53.594617 
L 199.71 -54.025021 
L 203.616 -56.983347 
L 207.522 -51.102556 
L 211.428 -56.136329 
L 215.334 -50.560395 
L 219.24 -53.394092 
L 223.146 -52.824784 
L 227.052 -50.18301 
L 230.958 -51.804821 
L 234.864 -53.916524 
L 238.77 -52.753171 
L 242.676 -48.994606 
L 246.582 -49.382988 
L 250.488 -48.799289 
L 254.394 -46.985395 
L 258.3 -50.616871 
L 262.206 -46.077624 
L 266.112 -45.742842 
L 270.018 -44.01381 
L 273.924 -47.033915 
L 277.83 -45.29196 
L 281.736 -45.653715 
L 285.642 -43.933682 
L 289.548 -45.020175 
L 293.454 -43.942238 
L 297.36 -42.643377 
L 301.266 -43.328934 
L 305.172 -42.83355 
L 309.078 -44.892858 
L 312.984 -43.087573 
L 316.89 -42.535147 
L 320.796 -41.035585 
L 324.702 -41.698075 
L 328.608 -41.863193 
L 332.514 -41.115597 
L 336.42 -40.916712 
L 340.326 -40.935601 
L 344.232 -40.469991 
L 348.138 -39.821839 
L 352.044 -41.494333 
L 355.95 -38.132706 
L 359.856 -39.443029 
L 363.762 -38.489571 
L 367.668 -38.30328 
L 371.574 -36.692224 
L 375.48 -36.826431 
L 379.386 -36.649147 
L 383.292 -37.207651 
L 387.198 -36.840527 
L 391.104 -36.946881 
L 395.01 -35.670541 
L 398.916 -35.006562 
L 402.822 -35.200901 
L 406.728 -34.678501 
L 410.634 -34.692083 
L 414.54 -33.805509 
L 418.446 -33.872793 
L 422.352 -33.35414 
L 426.258 -33.127381 
L 430.164 -33.281122 
L 434.07 -32.584932 
L 437.976 -32.482312 
L 441.882 -32.168175 
L 445.788 -31.906369 
L 449.694 -31.550929 
L 453.6 -31.32 
L 453.6 -31.32 
L 453.6 -31.32 
L 449.694 -31.778228 
L 445.788 -32.324845 
L 441.882 -32.763358 
L 437.976 -33.158399 
L 434.07 -33.373388 
L 430.164 -34.389577 
L 426.258 -34.511694 
L 422.352 -34.994663 
L 418.446 -35.488907 
L 414.54 -35.982419 
L 410.634 -36.61792 
L 406.728 -37.632191 
L 402.822 -37.98823 
L 398.916 -38.073332 
L 395.01 -38.876841 
L 391.104 -39.447274 
L 387.198 -39.564267 
L 383.292 -40.513643 
L 379.386 -40.440146 
L 375.48 -41.325385 
L 371.574 -40.834485 
L 367.668 -43.077685 
L 363.762 -42.881151 
L 359.856 -43.023155 
L 355.95 -44.07351 
L 352.044 -45.154986 
L 348.138 -45.483985 
L 344.232 -45.783078 
L 340.326 -47.322532 
L 336.42 -46.495478 
L 332.514 -47.341294 
L 328.608 -46.83795 
L 324.702 -49.407491 
L 320.796 -49.009542 
L 316.89 -49.811402 
L 312.984 -50.434604 
L 309.078 -51.507225 
L 305.172 -52.179735 
L 301.266 -52.947355 
L 297.36 -51.668047 
L 293.454 -51.095952 
L 289.548 -50.630751 
L 285.642 -54.592484 
L 281.736 -55.667153 
L 277.83 -55.873881 
L 273.924 -55.673394 
L 270.018 -54.002607 
L 266.112 -55.614173 
L 262.206 -57.300716 
L 258.3 -60.337128 
L 254.394 -58.956133 
L 250.488 -59.77635 
L 246.582 -61.168972 
L 242.676 -59.888727 
L 238.77 -63.476382 
L 234.864 -63.268213 
L 230.958 -63.794227 
L 227.052 -61.340802 
L 223.146 -64.265168 
L 219.24 -65.489828 
L 215.334 -65.409367 
L 211.428 -68.707614 
L 207.522 -68.570441 
L 203.616 -68.813978 
L 199.71 -66.707681 
L 195.804 -67.555159 
L 191.898 -67.029915 
L 187.992 -73.219161 
L 184.086 -73.778996 
L 180.18 -76.291222 
L 176.274 -73.809427 
L 172.368 -75.451535 
L 168.462 -76.690501 
L 164.556 -79.145302 
L 160.65 -75.39478 
L 156.744 -78.163319 
L 152.838 -82.883786 
L 148.932 -79.375244 
L 145.026 -79.555451 
L 141.12 -86.089448 
L 137.214 -86.599145 
L 133.308 -84.514061 
L 129.402 -88.797932 
L 125.496 -87.141384 
L 121.59 -89.162051 
L 117.684 -92.647229 
L 113.778 -95.650154 
L 109.872 -98.245747 
L 105.966 -99.512777 
L 102.06 -103.887801 
L 98.154 -103.644815 
L 94.248 -105.368581 
L 90.342 -104.716842 
L 86.436 -105.38861 
L 82.53 -116.79366 
L 78.624 -113.594415 
L 74.718 -122.318972 
L 70.812 -125.640271 
L 66.906 -142.240787 
z
"/>
    </defs>
    <g clip-path="url(#p5557a1dcad)">
     <use xlink:href="#m25863f02ae" x="0" y="216" style="fill: #2ca02c; fill-opacity: 0.2"/>
    </g>
   </g>
   <g id="PolyCollection_4">
    <defs>
     <path id="m0954128c4a" d="M 66.906 -182.52 
L 66.906 -154.898335 
L 70.812 -142.112746 
L 74.718 -122.627815 
L 78.624 -121.470512 
L 82.53 -111.805865 
L 86.436 -111.727037 
L 90.342 -107.979293 
L 94.248 -106.519294 
L 98.154 -94.519486 
L 102.06 -92.113325 
L 105.966 -90.206629 
L 109.872 -85.908944 
L 113.778 -95.239809 
L 117.684 -85.080236 
L 121.59 -91.052252 
L 125.496 -87.587298 
L 129.402 -76.698365 
L 133.308 -77.589042 
L 137.214 -82.862444 
L 141.12 -79.610101 
L 145.026 -81.321746 
L 148.932 -73.54959 
L 152.838 -74.771982 
L 156.744 -77.011282 
L 160.65 -69.339849 
L 164.556 -71.364306 
L 168.462 -69.885742 
L 172.368 -65.329879 
L 176.274 -72.925373 
L 180.18 -65.746952 
L 184.086 -60.703721 
L 187.992 -67.985395 
L 191.898 -65.504764 
L 195.804 -63.902664 
L 199.71 -62.483391 
L 203.616 -63.437073 
L 207.522 -62.794739 
L 211.428 -65.104699 
L 215.334 -59.422254 
L 219.24 -61.423711 
L 223.146 -60.418979 
L 227.052 -57.102438 
L 230.958 -60.604854 
L 234.864 -57.690924 
L 238.77 -57.234556 
L 242.676 -57.97595 
L 246.582 -55.820532 
L 250.488 -52.700516 
L 254.394 -55.49688 
L 258.3 -52.213952 
L 262.206 -53.867637 
L 266.112 -51.919046 
L 270.018 -51.716086 
L 273.924 -51.529713 
L 277.83 -52.095176 
L 281.736 -47.876466 
L 285.642 -51.063075 
L 289.548 -49.909869 
L 293.454 -49.567519 
L 297.36 -51.492473 
L 301.266 -47.570917 
L 305.172 -49.329174 
L 309.078 -44.613282 
L 312.984 -46.80415 
L 316.89 -45.914665 
L 320.796 -46.844566 
L 324.702 -45.098414 
L 328.608 -43.258112 
L 332.514 -40.972463 
L 336.42 -43.412913 
L 340.326 -42.196661 
L 344.232 -42.131192 
L 348.138 -40.788868 
L 352.044 -41.820532 
L 355.95 -40.2737 
L 359.856 -38.703568 
L 363.762 -39.829723 
L 367.668 -39.775268 
L 371.574 -39.213998 
L 375.48 -38.900887 
L 379.386 -38.767025 
L 383.292 -37.852729 
L 387.198 -37.016876 
L 391.104 -37.791535 
L 395.01 -36.775668 
L 398.916 -36.276515 
L 402.822 -35.659603 
L 406.728 -35.573426 
L 410.634 -35.100383 
L 414.54 -34.845958 
L 418.446 -34.663625 
L 422.352 -34.663147 
L 426.258 -33.894201 
L 430.164 -33.825947 
L 434.07 -33.275862 
L 437.976 -32.692328 
L 441.882 -32.545484 
L 445.788 -31.95242 
L 449.694 -31.678442 
L 453.6 -31.32 
L 453.6 -31.32 
L 453.6 -31.32 
L 449.694 -31.957486 
L 445.788 -32.555933 
L 441.882 -33.307307 
L 437.976 -33.801715 
L 434.07 -34.809483 
L 430.164 -35.238816 
L 426.258 -35.466654 
L 422.352 -36.809952 
L 418.446 -37.269212 
L 414.54 -37.755721 
L 410.634 -38.243161 
L 406.728 -39.048332 
L 402.822 -39.552503 
L 398.916 -40.609558 
L 395.01 -40.786153 
L 391.104 -41.924244 
L 387.198 -41.826471 
L 383.292 -42.799497 
L 379.386 -44.140676 
L 375.48 -44.509077 
L 371.574 -45.582521 
L 367.668 -45.290527 
L 363.762 -45.91172 
L 359.856 -46.126626 
L 355.95 -47.598059 
L 352.044 -48.696291 
L 348.138 -48.534262 
L 344.232 -48.714217 
L 340.326 -49.91959 
L 336.42 -51.461887 
L 332.514 -51.322441 
L 328.608 -50.526113 
L 324.702 -52.287242 
L 320.796 -54.731852 
L 316.89 -55.538065 
L 312.984 -57.32982 
L 309.078 -57.70602 
L 305.172 -58.527733 
L 301.266 -56.748542 
L 297.36 -61.112823 
L 293.454 -60.623327 
L 289.548 -62.39088 
L 285.642 -61.873805 
L 281.736 -58.804577 
L 277.83 -64.232597 
L 273.924 -64.620601 
L 270.018 -62.399595 
L 266.112 -65.274378 
L 262.206 -69.661541 
L 258.3 -67.381507 
L 254.394 -67.208278 
L 250.488 -67.354286 
L 246.582 -68.809848 
L 242.676 -71.587443 
L 238.77 -68.647278 
L 234.864 -73.774204 
L 230.958 -75.785366 
L 227.052 -73.479401 
L 223.146 -75.117855 
L 219.24 -75.422148 
L 215.334 -78.118932 
L 211.428 -81.407475 
L 207.522 -77.819355 
L 203.616 -80.185606 
L 199.71 -84.590137 
L 195.804 -78.456518 
L 191.898 -86.651939 
L 187.992 -85.733854 
L 184.086 -76.929482 
L 180.18 -86.355755 
L 176.274 -90.310597 
L 172.368 -85.979984 
L 168.462 -90.959667 
L 164.556 -92.205022 
L 160.65 -92.056363 
L 156.744 -94.824048 
L 152.838 -97.093026 
L 148.932 -97.94838 
L 145.026 -104.647111 
L 141.12 -102.921555 
L 137.214 -108.778364 
L 133.308 -101.443335 
L 129.402 -102.244095 
L 125.496 -113.579222 
L 121.59 -113.839416 
L 117.684 -105.604664 
L 113.778 -115.880086 
L 109.872 -104.064838 
L 105.966 -108.125532 
L 102.06 -120.08514 
L 98.154 -118.952727 
L 94.248 -130.661783 
L 90.342 -135.00389 
L 86.436 -133.224669 
L 82.53 -138.242312 
L 78.624 -148.992824 
L 74.718 -150.364777 
L 70.812 -166.117233 
L 66.906 -182.52 
z
"/>
    </defs>
    <g clip-path="url(#p5557a1dcad)">
     <use xlink:href="#m0954128c4a" x="0" y="216" style="fill: #d62728; fill-opacity: 0.2"/>
    </g>
   </g>
   <g id="matplotlib.axis_1">
    <g id="xtick_1">
     <g id="line2d_1">
      <path d="M 63 192.24 
L 63 25.92 
" clip-path="url(#p5557a1dcad)" style="fill: none; stroke: #b0b0b0; stroke-opacity: 0.4; stroke-width: 0.8; stroke-linecap: square"/>
     </g>
     <g id="line2d_2">
      <defs>
       <path id="mcf48286ca1" d="M 0 0 
L 0 3.5 
" style="stroke: #000000; stroke-width: 0.8"/>
      </defs>
      <g>
       <use xlink:href="#mcf48286ca1" x="63" y="192.24" style="stroke: #000000; stroke-width: 0.8"/>
      </g>
     </g>
     <g id="text_1">
      <!-- 0 -->
      <g transform="translate(58.784074 211.6933) scale(0.18 -0.18)">
       <defs>
        <path id="CMSS17-30" d="M 2758 2044 
C 2758 2405 2752 3077 2490 3596 
C 2227 4096 1805 4229 1504 4229 
C 1069 4229 698 3975 506 3570 
C 301 3146 243 2709 243 2044 
C 243 1589 262 1031 493 543 
C 755 5 1197 -128 1498 -128 
C 1894 -128 2278 81 2496 518 
C 2720 974 2758 1474 2758 2044 
z
M 1498 261 
C 1011 261 864 811 819 995 
C 742 1310 730 1614 730 2114 
C 730 2506 730 2948 851 3297 
C 998 3701 1254 3840 1498 3840 
C 1971 3840 2125 3372 2176 3208 
C 2272 2873 2272 2481 2272 2114 
C 2272 1526 2272 261 1498 261 
z
" transform="scale(0.015625)"/>
       </defs>
       <use xlink:href="#CMSS17-30" transform="scale(0.996264)"/>
      </g>
     </g>
    </g>
    <g id="xtick_2">
     <g id="line2d_3">
      <path d="M 102.06 192.24 
L 102.06 25.92 
" clip-path="url(#p5557a1dcad)" style="fill: none; stroke: #b0b0b0; stroke-opacity: 0.4; stroke-width: 0.8; stroke-linecap: square"/>
     </g>
     <g id="line2d_4">
      <g>
       <use xlink:href="#mcf48286ca1" x="102.06" y="192.24" style="stroke: #000000; stroke-width: 0.8"/>
      </g>
     </g>
     <g id="text_2">
      <!-- 10 -->
      <g transform="translate(93.628149 211.6933) scale(0.18 -0.18)">
       <defs>
        <path id="CMSS17-31" d="M 1818 4288 
L 1696 4288 
C 1350 3940 947 3890 538 3890 
L 538 3520 
C 723 3520 1024 3520 1325 3667 
L 1325 369 
L 570 369 
L 570 0 
L 2573 0 
L 2573 369 
L 1818 369 
L 1818 4288 
z
" transform="scale(0.015625)"/>
       </defs>
       <use xlink:href="#CMSS17-31" transform="scale(0.996264)"/>
       <use xlink:href="#CMSS17-30" transform="translate(46.843624 0) scale(0.996264)"/>
      </g>
     </g>
    </g>
    <g id="xtick_3">
     <g id="line2d_5">
      <path d="M 141.12 192.24 
L 141.12 25.92 
" clip-path="url(#p5557a1dcad)" style="fill: none; stroke: #b0b0b0; stroke-opacity: 0.4; stroke-width: 0.8; stroke-linecap: square"/>
     </g>
     <g id="line2d_6">
      <g>
       <use xlink:href="#mcf48286ca1" x="141.12" y="192.24" style="stroke: #000000; stroke-width: 0.8"/>
      </g>
     </g>
     <g id="text_3">
      <!-- 20 -->
      <g transform="translate(132.688149 211.6933) scale(0.18 -0.18)">
       <defs>
        <path id="CMSS17-32" d="M 1651 1357 
C 1830 1541 2099 1764 2285 1987 
C 2464 2204 2701 2511 2701 2957 
C 2701 3657 2227 4288 1421 4288 
C 787 4288 422 3893 250 3274 
L 499 2929 
C 640 3510 838 3880 1338 3880 
C 1888 3880 2195 3433 2195 2942 
C 2195 2355 1747 1901 1408 1563 
C 1030 1187 659 804 301 408 
L 301 0 
L 2701 0 
L 2701 433 
L 1613 433 
C 1536 433 1459 433 1382 433 
L 742 433 
L 742 439 
L 1651 1357 
z
" transform="scale(0.015625)"/>
       </defs>
       <use xlink:href="#CMSS17-32" transform="scale(0.996264)"/>
       <use xlink:href="#CMSS17-30" transform="translate(46.843624 0) scale(0.996264)"/>
      </g>
     </g>
    </g>
    <g id="xtick_4">
     <g id="line2d_7">
      <path d="M 180.18 192.24 
L 180.18 25.92 
" clip-path="url(#p5557a1dcad)" style="fill: none; stroke: #b0b0b0; stroke-opacity: 0.4; stroke-width: 0.8; stroke-linecap: square"/>
     </g>
     <g id="line2d_8">
      <g>
       <use xlink:href="#mcf48286ca1" x="180.18" y="192.24" style="stroke: #000000; stroke-width: 0.8"/>
      </g>
     </g>
     <g id="text_4">
      <!-- 30 -->
      <g transform="translate(171.748149 211.6933) scale(0.18 -0.18)">
       <defs>
        <path id="CMSS17-33" d="M 1005 2025 
L 1440 2025 
C 2042 2025 2214 1507 2214 1146 
C 2214 653 1933 267 1472 267 
C 1114 267 608 444 320 912 
C 275 691 275 678 250 526 
C 550 88 1037 -128 1485 -128 
C 2214 -128 2752 473 2752 1138 
C 2752 1638 2400 2057 1920 2215 
C 2304 2424 2586 2816 2586 3273 
C 2586 3805 2093 4229 1491 4229 
C 941 4229 512 3892 333 3530 
C 378 3468 493 3284 550 3189 
C 691 3562 1056 3840 1485 3840 
C 1843 3840 2080 3607 2080 3271 
C 2080 2923 1856 2543 1478 2455 
C 1453 2455 1056 2417 1005 2411 
L 1005 2025 
z
" transform="scale(0.015625)"/>
       </defs>
       <use xlink:href="#CMSS17-33" transform="scale(0.996264)"/>
       <use xlink:href="#CMSS17-30" transform="translate(46.843624 0) scale(0.996264)"/>
      </g>
     </g>
    </g>
    <g id="xtick_5">
     <g id="line2d_9">
      <path d="M 219.24 192.24 
L 219.24 25.92 
" clip-path="url(#p5557a1dcad)" style="fill: none; stroke: #b0b0b0; stroke-opacity: 0.4; stroke-width: 0.8; stroke-linecap: square"/>
     </g>
     <g id="line2d_10">
      <g>
       <use xlink:href="#mcf48286ca1" x="219.24" y="192.24" style="stroke: #000000; stroke-width: 0.8"/>
      </g>
     </g>
     <g id="text_5">
      <!-- 40 -->
      <g transform="translate(210.808149 211.6933) scale(0.18 -0.18)">
       <defs>
        <path id="CMSS17-34" d="M 2253 1088 
L 2835 1088 
L 2835 1477 
L 2253 1477 
L 2253 4192 
L 1690 4192 
L 166 1477 
L 166 1088 
L 1747 1088 
L 1747 0 
L 2253 0 
L 2253 1088 
z
M 659 1477 
C 1030 2127 1766 3439 1766 3885 
L 1766 1477 
L 659 1477 
z
" transform="scale(0.015625)"/>
       </defs>
       <use xlink:href="#CMSS17-34" transform="scale(0.996264)"/>
       <use xlink:href="#CMSS17-30" transform="translate(46.843624 0) scale(0.996264)"/>
      </g>
     </g>
    </g>
    <g id="xtick_6">
     <g id="line2d_11">
      <path d="M 258.3 192.24 
L 258.3 25.92 
" clip-path="url(#p5557a1dcad)" style="fill: none; stroke: #b0b0b0; stroke-opacity: 0.4; stroke-width: 0.8; stroke-linecap: square"/>
     </g>
     <g id="line2d_12">
      <g>
       <use xlink:href="#mcf48286ca1" x="258.3" y="192.24" style="stroke: #000000; stroke-width: 0.8"/>
      </g>
     </g>
     <g id="text_6">
      <!-- 50 -->
      <g transform="translate(249.868149 211.6933) scale(0.18 -0.18)">
       <defs>
        <path id="CMSS17-35" d="M 934 3752 
L 2502 3752 
L 2502 4160 
L 467 4160 
L 467 1781 
L 896 1781 
C 1011 2046 1248 2240 1555 2240 
C 1843 2240 2163 1989 2163 1266 
C 2163 493 1709 267 1376 267 
C 966 267 589 512 422 851 
L 218 499 
C 512 49 992 -128 1376 -128 
C 2118 -128 2701 497 2701 1253 
C 2701 2030 2182 2629 1562 2629 
C 1338 2629 1120 2553 934 2399 
L 934 3752 
z
" transform="scale(0.015625)"/>
       </defs>
       <use xlink:href="#CMSS17-35" transform="scale(0.996264)"/>
       <use xlink:href="#CMSS17-30" transform="translate(46.843624 0) scale(0.996264)"/>
      </g>
     </g>
    </g>
    <g id="xtick_7">
     <g id="line2d_13">
      <path d="M 297.36 192.24 
L 297.36 25.92 
" clip-path="url(#p5557a1dcad)" style="fill: none; stroke: #b0b0b0; stroke-opacity: 0.4; stroke-width: 0.8; stroke-linecap: square"/>
     </g>
     <g id="line2d_14">
      <g>
       <use xlink:href="#mcf48286ca1" x="297.36" y="192.24" style="stroke: #000000; stroke-width: 0.8"/>
      </g>
     </g>
     <g id="text_7">
      <!-- 60 -->
      <g transform="translate(288.928149 211.6933) scale(0.18 -0.18)">
       <defs>
        <path id="CMSS17-36" d="M 2496 4101 
C 2227 4210 2035 4229 1856 4229 
C 1024 4229 250 3368 250 2006 
C 250 265 986 -128 1510 -128 
C 1798 -128 2086 -39 2362 280 
C 2643 617 2752 898 2752 1389 
C 2752 2179 2362 2880 1779 2880 
C 1357 2880 992 2657 768 2376 
C 832 3258 1254 3840 1862 3840 
C 2029 3840 2246 3816 2496 3710 
L 2496 4101 
z
M 774 1369 
C 774 1420 774 1452 781 1548 
C 781 2045 1069 2491 1536 2491 
C 1837 2491 1990 2332 2106 2135 
C 2240 1886 2246 1650 2246 1388 
C 2246 1140 2246 891 2099 637 
C 1978 439 1818 267 1510 267 
C 902 267 800 1114 774 1369 
z
" transform="scale(0.015625)"/>
       </defs>
       <use xlink:href="#CMSS17-36" transform="scale(0.996264)"/>
       <use xlink:href="#CMSS17-30" transform="translate(46.843624 0) scale(0.996264)"/>
      </g>
     </g>
    </g>
    <g id="xtick_8">
     <g id="line2d_15">
      <path d="M 336.42 192.24 
L 336.42 25.92 
" clip-path="url(#p5557a1dcad)" style="fill: none; stroke: #b0b0b0; stroke-opacity: 0.4; stroke-width: 0.8; stroke-linecap: square"/>
     </g>
     <g id="line2d_16">
      <g>
       <use xlink:href="#mcf48286ca1" x="336.42" y="192.24" style="stroke: #000000; stroke-width: 0.8"/>
      </g>
     </g>
     <g id="text_8">
      <!-- 70 -->
      <g transform="translate(327.988149 211.6933) scale(0.18 -0.18)">
       <defs>
        <path id="CMSS17-37" d="M 1389 3776 
C 1466 3776 1542 3776 1619 3776 
L 2355 3776 
C 1440 2711 915 1365 915 -32 
L 1427 -32 
C 1427 1323 1875 2696 2752 3795 
L 2752 4209 
L 250 4209 
L 250 3776 
L 1389 3776 
z
" transform="scale(0.015625)"/>
       </defs>
       <use xlink:href="#CMSS17-37" transform="scale(0.996264)"/>
       <use xlink:href="#CMSS17-30" transform="translate(46.843624 0) scale(0.996264)"/>
      </g>
     </g>
    </g>
    <g id="xtick_9">
     <g id="line2d_17">
      <path d="M 375.48 192.24 
L 375.48 25.92 
" clip-path="url(#p5557a1dcad)" style="fill: none; stroke: #b0b0b0; stroke-opacity: 0.4; stroke-width: 0.8; stroke-linecap: square"/>
     </g>
     <g id="line2d_18">
      <g>
       <use xlink:href="#mcf48286ca1" x="375.48" y="192.24" style="stroke: #000000; stroke-width: 0.8"/>
      </g>
     </g>
     <g id="text_9">
      <!-- 80 -->
      <g transform="translate(367.048149 211.6933) scale(0.18 -0.18)">
       <defs>
        <path id="CMSS17-38" d="M 1933 2222 
C 2419 2380 2669 2760 2669 3134 
C 2669 3722 2157 4229 1504 4229 
C 826 4229 333 3708 333 3144 
C 333 2780 576 2403 1069 2241 
C 442 1997 250 1512 250 1149 
C 250 446 819 -128 1498 -128 
C 2202 -128 2752 455 2752 1138 
C 2752 1557 2502 2000 1933 2222 
z
M 1504 2432 
C 1075 2432 787 2712 787 3136 
C 787 3566 1075 3840 1504 3840 
C 1901 3840 2214 3591 2214 3136 
C 2214 2687 1907 2432 1504 2432 
z
M 1504 267 
C 1139 267 749 517 749 1156 
C 749 1813 1184 2043 1498 2043 
C 1843 2043 2253 1800 2253 1156 
C 2253 491 1830 267 1504 267 
z
" transform="scale(0.015625)"/>
       </defs>
       <use xlink:href="#CMSS17-38" transform="scale(0.996264)"/>
       <use xlink:href="#CMSS17-30" transform="translate(46.843624 0) scale(0.996264)"/>
      </g>
     </g>
    </g>
    <g id="xtick_10">
     <g id="line2d_19">
      <path d="M 414.54 192.24 
L 414.54 25.92 
" clip-path="url(#p5557a1dcad)" style="fill: none; stroke: #b0b0b0; stroke-opacity: 0.4; stroke-width: 0.8; stroke-linecap: square"/>
     </g>
     <g id="line2d_20">
      <g>
       <use xlink:href="#mcf48286ca1" x="414.54" y="192.24" style="stroke: #000000; stroke-width: 0.8"/>
      </g>
     </g>
     <g id="text_10">
      <!-- 90 -->
      <g transform="translate(406.108149 211.6933) scale(0.18 -0.18)">
       <defs>
        <path id="CMSS17-39" d="M 435 174 
C 614 21 845 -128 1235 -128 
C 2010 -128 2752 721 2752 2095 
C 2752 3932 1952 4229 1523 4229 
C 1094 4229 819 4041 582 3741 
C 301 3397 250 3090 250 2733 
C 250 2307 326 2045 506 1745 
C 749 1357 973 1275 1222 1275 
C 1600 1275 1978 1459 2234 1776 
C 2189 902 1798 267 1235 267 
C 1005 267 819 339 634 516 
L 435 174 
z
M 2214 2746 
C 2221 2703 2221 2622 2221 2596 
C 2221 2074 1914 1664 1466 1664 
C 1171 1664 1018 1813 902 2006 
C 762 2249 755 2485 755 2733 
C 755 2976 755 3244 934 3511 
C 1069 3703 1235 3840 1523 3840 
C 2112 3840 2208 3000 2214 2746 
z
" transform="scale(0.015625)"/>
       </defs>
       <use xlink:href="#CMSS17-39" transform="scale(0.996264)"/>
       <use xlink:href="#CMSS17-30" transform="translate(46.843624 0) scale(0.996264)"/>
      </g>
     </g>
    </g>
    <g id="xtick_11">
     <g id="line2d_21">
      <path d="M 453.6 192.24 
L 453.6 25.92 
" clip-path="url(#p5557a1dcad)" style="fill: none; stroke: #b0b0b0; stroke-opacity: 0.4; stroke-width: 0.8; stroke-linecap: square"/>
     </g>
     <g id="line2d_22">
      <g>
       <use xlink:href="#mcf48286ca1" x="453.6" y="192.24" style="stroke: #000000; stroke-width: 0.8"/>
      </g>
     </g>
     <g id="text_11">
      <!-- 100 -->
      <g transform="translate(440.952223 211.6933) scale(0.18 -0.18)">
       <use xlink:href="#CMSS17-31" transform="scale(0.996264)"/>
       <use xlink:href="#CMSS17-30" transform="translate(46.843624 0) scale(0.996264)"/>
       <use xlink:href="#CMSS17-30" transform="translate(93.687247 0) scale(0.996264)"/>
      </g>
     </g>
    </g>
    <g id="text_12">
     <!-- Iteration, $\tau$ -->
     <g transform="translate(219.711264 231.634664) scale(0.18 -0.18)">
      <defs>
       <path id="CMSS17-49" d="M 1094 4416 
L 557 4416 
L 557 0 
L 1094 0 
L 1094 4416 
z
" transform="scale(0.015625)"/>
       <path id="CMSS17-74" d="M 1069 2368 
L 1901 2368 
L 1901 2737 
L 1069 2737 
L 1069 3520 
L 614 3520 
L 614 2737 
L 109 2737 
L 109 2368 
L 602 2368 
L 602 749 
C 602 384 685 -64 1107 -64 
C 1427 -64 1722 25 2003 172 
L 1901 548 
C 1747 414 1562 337 1363 337 
C 1082 337 1069 696 1069 856 
L 1069 2368 
z
" transform="scale(0.015625)"/>
       <path id="CMSS17-65" d="M 2502 1377 
C 2502 1590 2490 2003 2285 2345 
C 2061 2713 1696 2816 1421 2816 
C 755 2816 192 2188 192 1375 
C 192 582 774 -64 1510 -64 
C 1798 -64 2150 19 2470 248 
C 2470 274 2458 414 2451 420 
C 2451 433 2432 630 2432 656 
C 2125 407 1773 325 1517 325 
C 1107 325 666 667 646 1377 
L 2502 1377 
z
M 698 1728 
C 781 2084 1062 2421 1421 2421 
C 1517 2421 1965 2421 2080 1728 
L 698 1728 
z
" transform="scale(0.015625)"/>
       <path id="CMSS17-72" d="M 954 1363 
C 954 1965 1395 2368 1958 2368 
L 1958 2789 
C 1549 2789 1165 2585 934 2253 
L 934 2758 
L 480 2758 
L 480 0 
L 954 0 
L 954 1363 
z
" transform="scale(0.015625)"/>
       <path id="CMSS17-61" d="M 2406 1791 
C 2406 2392 1978 2808 1402 2808 
C 1120 2808 813 2757 461 2553 
L 499 2135 
C 659 2248 934 2432 1395 2432 
C 1722 2432 1920 2180 1920 1782 
L 1920 1536 
C 896 1536 256 1238 256 726 
C 256 461 416 -64 947 -64 
C 1043 -64 1562 -64 1933 217 
L 1933 -19 
L 2406 -19 
L 2406 1791 
z
M 1920 816 
C 1920 701 1920 548 1728 434 
C 1562 325 1350 325 1261 325 
C 941 325 723 511 723 744 
C 723 1211 1722 1211 1920 1211 
L 1920 816 
z
" transform="scale(0.015625)"/>
       <path id="CMSS17-69" d="M 979 4183 
L 442 4183 
L 442 3648 
L 979 3648 
L 979 4183 
z
M 947 2739 
L 474 2739 
L 474 0 
L 947 0 
L 947 2739 
z
" transform="scale(0.015625)"/>
       <path id="CMSS17-6f" d="M 2829 1356 
C 2829 2176 2221 2816 1504 2816 
C 768 2816 173 2157 173 1356 
C 173 544 787 -64 1498 -64 
C 2227 -64 2829 563 2829 1356 
z
M 1504 337 
C 1050 337 659 709 659 1408 
C 659 2151 1114 2427 1498 2427 
C 1914 2427 2342 2126 2342 1408 
C 2342 683 1926 337 1504 337 
z
" transform="scale(0.015625)"/>
       <path id="CMSS17-6e" d="M 2618 1877 
C 2618 2283 2522 2816 1798 2816 
C 1389 2816 1120 2606 941 2389 
L 941 2758 
L 474 2758 
L 474 0 
L 960 0 
L 960 1559 
C 960 1964 1114 2428 1549 2428 
C 2112 2428 2131 2048 2131 1829 
L 2131 0 
L 2618 0 
L 2618 1877 
z
" transform="scale(0.015625)"/>
       <path id="CMSS17-2c" d="M 1088 6 
L 1088 510 
L 576 510 
L 576 0 
L 736 0 
L 570 -800 
L 826 -800 
L 1088 6 
z
" transform="scale(0.015625)"/>
       <path id="CMMI12-1c" d="M 1837 2408 
L 2899 2408 
C 2982 2408 3194 2408 3194 2612 
C 3194 2752 3072 2752 2957 2752 
L 1197 2752 
C 1050 2752 832 2752 538 2440 
C 371 2255 166 1917 166 1879 
C 166 1841 198 1828 237 1828 
C 282 1828 288 1847 320 1885 
C 653 2408 986 2408 1146 2408 
L 1677 2408 
L 1011 223 
C 979 127 979 114 979 95 
C 979 25 1024 -64 1152 -64 
C 1350 -64 1382 108 1402 203 
L 1837 2408 
z
" transform="scale(0.015625)"/>
      </defs>
      <use xlink:href="#CMSS17-49" transform="scale(0.996264)"/>
      <use xlink:href="#CMSS17-74" transform="translate(25.783926 0) scale(0.996264)"/>
      <use xlink:href="#CMSS17-65" transform="translate(59.615492 0) scale(0.996264)"/>
      <use xlink:href="#CMSS17-72" transform="translate(101.254314 0) scale(0.996264)"/>
      <use xlink:href="#CMSS17-61" transform="translate(133.164087 0) scale(0.996264)"/>
      <use xlink:href="#CMSS17-74" transform="translate(178.086007 0) scale(0.996264)"/>
      <use xlink:href="#CMSS17-69" transform="translate(211.917574 0) scale(0.996264)"/>
      <use xlink:href="#CMSS17-6f" transform="translate(234.098297 0) scale(0.996264)"/>
      <use xlink:href="#CMSS17-6e" transform="translate(280.941921 0) scale(0.996264)"/>
      <use xlink:href="#CMSS17-2c" transform="translate(329.146864 0) scale(0.996264)"/>
      <use xlink:href="#CMMI12-1c" transform="translate(386.400181 0) scale(0.996264)"/>
     </g>
    </g>
   </g>
   <g id="matplotlib.axis_2">
    <g id="ytick_1">
     <g id="line2d_23">
      <path d="M 63 184.68 
L 453.6 184.68 
" clip-path="url(#p5557a1dcad)" style="fill: none; stroke: #b0b0b0; stroke-opacity: 0.4; stroke-width: 0.8; stroke-linecap: square"/>
     </g>
     <g id="line2d_24">
      <defs>
       <path id="m1358c4ee5b" d="M 0 0 
L -3.5 0 
" style="stroke: #000000; stroke-width: 0.8"/>
      </defs>
      <g>
       <use xlink:href="#m1358c4ee5b" x="63" y="184.68" style="stroke: #000000; stroke-width: 0.8"/>
      </g>
     </g>
     <g id="text_13">
      <!-- 0 -->
      <g transform="translate(47.568149 190.90665) scale(0.18 -0.18)">
       <use xlink:href="#CMSS17-30" transform="scale(0.996264)"/>
      </g>
     </g>
    </g>
    <g id="ytick_2">
     <g id="line2d_25">
      <path d="M 63 111.728065 
L 453.6 111.728065 
" clip-path="url(#p5557a1dcad)" style="fill: none; stroke: #b0b0b0; stroke-opacity: 0.4; stroke-width: 0.8; stroke-linecap: square"/>
     </g>
     <g id="line2d_26">
      <g>
       <use xlink:href="#m1358c4ee5b" x="63" y="111.728065" style="stroke: #000000; stroke-width: 0.8"/>
      </g>
     </g>
     <g id="text_14">
      <!-- 0.5 -->
      <g transform="translate(34.451945 117.954715) scale(0.18 -0.18)">
       <defs>
        <path id="CMSS17-2e" d="M 1088 510 
L 576 510 
L 576 0 
L 1088 0 
L 1088 510 
z
" transform="scale(0.015625)"/>
       </defs>
       <use xlink:href="#CMSS17-30" transform="scale(0.996264)"/>
       <use xlink:href="#CMSS17-2e" transform="translate(46.843624 0) scale(0.996264)"/>
       <use xlink:href="#CMSS17-35" transform="translate(72.867828 0) scale(0.996264)"/>
      </g>
     </g>
    </g>
    <g id="ytick_3">
     <g id="line2d_27">
      <path d="M 63 38.77613 
L 453.6 38.77613 
" clip-path="url(#p5557a1dcad)" style="fill: none; stroke: #b0b0b0; stroke-opacity: 0.4; stroke-width: 0.8; stroke-linecap: square"/>
     </g>
     <g id="line2d_28">
      <g>
       <use xlink:href="#m1358c4ee5b" x="63" y="38.77613" style="stroke: #000000; stroke-width: 0.8"/>
      </g>
     </g>
     <g id="text_15">
      <!-- 1 -->
      <g transform="translate(47.568149 45.002781) scale(0.18 -0.18)">
       <use xlink:href="#CMSS17-31" transform="scale(0.996264)"/>
      </g>
     </g>
    </g>
    <g id="text_16">
     <!-- Regret, $r_\tau$ -->
     <g transform="translate(26.963881 143.923253) rotate(-90) scale(0.18 -0.18)">
      <defs>
       <path id="CMSS17-52" d="M 2522 2109 
L 2534 2115 
C 3533 2459 3539 3147 3539 3268 
C 3539 3873 2925 4453 2003 4453 
L 570 4453 
L 570 32 
L 1094 32 
L 1094 2048 
L 2035 2048 
L 3168 32 
L 3706 32 
L 2522 2109 
z
M 1094 2437 
L 1094 4096 
L 1933 4096 
C 2746 4096 3034 3637 3034 3267 
C 3034 2922 2778 2437 1933 2437 
L 1094 2437 
z
" transform="scale(0.015625)"/>
       <path id="CMSS17-67" d="M 2848 2808 
C 2483 2808 2170 2738 1914 2617 
C 1702 2777 1485 2808 1338 2808 
C 781 2808 358 2349 358 1814 
C 358 1468 550 1207 563 1195 
C 448 1035 384 863 384 672 
C 384 448 474 289 544 200 
C 211 -3 166 -314 166 -435 
C 166 -898 749 -1280 1498 -1280 
C 2253 -1280 2835 -898 2835 -428 
C 2835 448 1856 448 1587 448 
L 1069 448 
C 973 448 717 448 717 791 
C 717 921 774 1004 781 1010 
C 877 940 1075 832 1338 832 
C 1869 832 2310 1278 2310 1827 
C 2310 2132 2170 2355 2112 2432 
L 2131 2432 
C 2150 2432 2419 2432 2515 2432 
C 2720 2432 2739 2429 2918 2419 
L 2848 2808 
z
M 1338 1182 
C 1120 1182 813 1315 813 1823 
C 813 2375 1165 2464 1331 2464 
C 1549 2464 1856 2331 1856 1823 
C 1856 1271 1504 1182 1338 1182 
z
M 1581 -10 
C 1734 -10 2381 -10 2381 -442 
C 2381 -714 1984 -929 1504 -929 
C 1018 -929 621 -720 621 -435 
C 621 -403 621 -10 1062 -10 
L 1581 -10 
z
" transform="scale(0.015625)"/>
       <path id="CMMI12-72" d="M 2490 2612 
C 2291 2574 2189 2433 2189 2293 
C 2189 2139 2310 2088 2400 2088 
C 2579 2088 2726 2242 2726 2433 
C 2726 2638 2528 2816 2208 2816 
C 1952 2816 1658 2701 1389 2312 
C 1344 2650 1088 2816 832 2816 
C 582 2816 454 2625 378 2484 
C 269 2254 173 1871 173 1839 
C 173 1814 198 1782 243 1782 
C 294 1782 301 1788 339 1935 
C 435 2318 557 2689 813 2689 
C 966 2689 1011 2580 1011 2395 
C 1011 2254 947 2005 902 1807 
L 723 1118 
C 698 996 627 709 595 594 
C 550 428 480 128 480 96 
C 480 6 550 -64 646 -64 
C 717 -64 838 -19 877 109 
C 896 160 1133 1124 1171 1271 
C 1203 1411 1242 1546 1274 1686 
C 1299 1775 1325 1878 1344 1961 
C 1363 2018 1536 2331 1696 2472 
C 1773 2542 1939 2689 2202 2689 
C 2304 2689 2406 2670 2490 2612 
z
" transform="scale(0.015625)"/>
      </defs>
      <use xlink:href="#CMSS17-52" transform="scale(0.996264)"/>
      <use xlink:href="#CMSS17-65" transform="translate(60.416155 0) scale(0.996264)"/>
      <use xlink:href="#CMSS17-67" transform="translate(102.054977 0) scale(0.996264)"/>
      <use xlink:href="#CMSS17-72" transform="translate(148.8986 0) scale(0.996264)"/>
      <use xlink:href="#CMSS17-65" transform="translate(180.808373 0) scale(0.996264)"/>
      <use xlink:href="#CMSS17-74" transform="translate(222.447195 0) scale(0.996264)"/>
      <use xlink:href="#CMSS17-2c" transform="translate(256.278762 0) scale(0.996264)"/>
      <use xlink:href="#CMMI12-72" transform="translate(313.532079 0) scale(0.996264)"/>
      <use xlink:href="#CMMI12-1c" transform="translate(357.492974 -14.943915) scale(0.697382)"/>
     </g>
    </g>
   </g>
   <g id="line2d_29">
    <path d="M 66.906 151.406252 
L 70.812 153.824328 
L 74.718 157.048994 
L 78.624 158.2022 
L 82.53 160.508856 
L 86.436 161.829176 
L 90.342 162.722601 
L 94.248 162.866251 
L 98.154 164.780086 
L 102.06 164.529544 
L 105.966 165.61526 
L 109.872 165.452527 
L 113.778 165.966159 
L 117.684 166.487621 
L 121.59 168.121282 
L 125.496 167.843701 
L 129.402 169.784539 
L 133.308 169.30819 
L 137.214 169.064409 
L 141.12 169.522333 
L 145.026 170.635312 
L 148.932 170.727052 
L 152.838 171.274473 
L 156.744 171.212541 
L 160.65 171.860946 
L 164.556 172.535897 
L 168.462 173.068284 
L 172.368 172.596375 
L 176.274 172.835104 
L 180.18 173.021825 
L 184.086 173.099018 
L 187.992 173.540198 
L 191.898 173.448189 
L 195.804 174.129479 
L 199.71 173.568536 
L 203.616 174.462824 
L 207.522 174.723267 
L 211.428 175.083736 
L 215.334 175.94818 
L 219.24 175.875983 
L 223.146 175.365375 
L 227.052 175.846905 
L 230.958 176.564737 
L 234.864 176.387488 
L 238.77 176.540578 
L 242.676 176.058298 
L 246.582 176.825167 
L 250.488 176.954316 
L 254.394 176.738723 
L 258.3 177.631466 
L 262.206 178.015513 
L 266.112 178.120469 
L 270.018 178.293172 
L 273.924 178.678309 
L 277.83 178.390461 
L 281.736 178.011785 
L 285.642 178.267119 
L 289.548 179.023068 
L 293.454 178.250773 
L 297.36 178.767093 
L 301.266 179.312059 
L 305.172 179.467178 
L 309.078 179.69566 
L 312.984 179.94446 
L 316.89 179.399424 
L 320.796 179.847565 
L 324.702 180.119813 
L 328.608 179.850271 
L 332.514 180.699029 
L 336.42 180.870579 
L 340.326 180.616808 
L 344.232 180.858753 
L 348.138 181.557888 
L 352.044 181.742051 
L 355.95 181.591523 
L 359.856 181.751997 
L 363.762 181.871851 
L 367.668 181.801837 
L 371.574 181.832402 
L 375.48 182.136007 
L 379.386 182.273386 
L 383.292 182.317219 
L 387.198 182.660095 
L 391.104 182.564645 
L 395.01 182.699087 
L 398.916 183.082625 
L 402.822 182.820426 
L 406.728 183.390138 
L 410.634 183.385111 
L 414.54 183.353569 
L 418.446 183.575621 
L 422.352 183.738974 
L 426.258 183.702289 
L 430.164 183.898817 
L 434.07 184.114645 
L 437.976 184.185647 
L 441.882 184.317553 
L 445.788 184.44505 
L 449.694 184.546917 
L 453.6 184.68 
" clip-path="url(#p5557a1dcad)" style="fill: none; stroke: #1f77b4; stroke-width: 1.5; stroke-linecap: square"/>
   </g>
   <g id="line2d_30">
    <path d="M 66.906 116.690906 
L 70.812 124.226518 
L 74.718 130.76053 
L 78.624 135.96969 
L 82.53 139.243122 
L 86.436 136.93776 
L 90.342 139.142593 
L 94.248 142.353416 
L 98.154 144.423251 
L 102.06 146.489991 
L 105.966 144.696285 
L 109.872 147.556571 
L 113.778 148.424477 
L 117.684 150.967949 
L 121.59 151.325737 
L 125.496 152.373962 
L 129.402 150.955619 
L 133.308 153.92937 
L 137.214 155.523709 
L 141.12 158.021018 
L 145.026 155.939697 
L 148.932 157.975341 
L 152.838 155.551238 
L 156.744 158.771243 
L 160.65 158.237643 
L 164.556 157.343065 
L 168.462 162.457469 
L 172.368 161.109729 
L 176.274 160.547331 
L 180.18 163.860018 
L 184.086 160.90403 
L 187.992 163.522829 
L 191.898 164.233271 
L 195.804 162.49458 
L 199.71 163.029873 
L 203.616 163.849028 
L 207.522 163.697489 
L 211.428 165.288588 
L 215.334 166.108071 
L 219.24 167.899678 
L 223.146 167.007005 
L 227.052 166.37949 
L 230.958 168.920735 
L 234.864 167.393855 
L 238.77 168.247675 
L 242.676 169.568049 
L 246.582 167.809156 
L 250.488 168.117575 
L 254.394 170.891267 
L 258.3 169.682401 
L 262.206 171.71906 
L 266.112 171.552779 
L 270.018 170.937586 
L 273.924 171.723236 
L 277.83 171.098923 
L 281.736 171.544172 
L 285.642 172.739863 
L 289.548 172.791062 
L 293.454 172.7438 
L 297.36 172.705154 
L 301.266 173.892691 
L 305.172 175.044829 
L 309.078 174.456618 
L 312.984 174.267301 
L 316.89 174.93382 
L 320.796 175.375631 
L 324.702 176.676447 
L 328.608 175.30131 
L 332.514 176.893488 
L 336.42 176.927031 
L 340.326 176.476837 
L 344.232 176.967307 
L 348.138 177.444736 
L 352.044 178.020937 
L 355.95 177.814956 
L 359.856 178.355362 
L 363.762 179.009587 
L 367.668 178.849195 
L 371.574 179.539306 
L 375.48 179.230276 
L 379.386 180.07192 
L 383.292 180.476592 
L 387.198 179.952866 
L 391.104 180.430411 
L 395.01 181.306768 
L 398.916 180.86272 
L 402.822 181.367475 
L 406.728 181.610954 
L 410.634 181.862973 
L 414.54 182.269746 
L 418.446 182.558893 
L 422.352 182.435793 
L 426.258 182.871007 
L 430.164 183.328884 
L 434.07 183.527731 
L 437.976 183.657722 
L 441.882 183.972755 
L 445.788 184.172187 
L 449.694 184.442468 
L 453.6 184.68 
" clip-path="url(#p5557a1dcad)" style="fill: none; stroke: #ff7f0e; stroke-width: 1.5; stroke-linecap: square"/>
   </g>
   <g id="line2d_31">
    <path d="M 66.906 84.383593 
L 70.812 99.972868 
L 74.718 104.428673 
L 78.624 111.452207 
L 82.53 110.382489 
L 86.436 117.958239 
L 90.342 120.07558 
L 94.248 119.122085 
L 98.154 123.034142 
L 102.06 119.754226 
L 105.966 124.548142 
L 109.872 127.46077 
L 113.778 129.911304 
L 117.684 130.652736 
L 121.59 136.21842 
L 125.496 136.278293 
L 129.402 137.153025 
L 133.308 139.883425 
L 137.214 138.916485 
L 141.12 139.882099 
L 145.026 144.787856 
L 148.932 143.590126 
L 152.838 138.96177 
L 156.744 146.609656 
L 160.65 147.660669 
L 164.556 142.988317 
L 168.462 145.429854 
L 172.368 147.965147 
L 176.274 150.191409 
L 180.18 147.368963 
L 184.086 150.047265 
L 187.992 149.16769 
L 191.898 155.047163 
L 195.804 155.425112 
L 199.71 155.633649 
L 203.616 153.101337 
L 207.522 156.163502 
L 211.428 153.578029 
L 215.334 158.015119 
L 219.24 156.55804 
L 223.146 157.455024 
L 227.052 160.238094 
L 230.958 158.200476 
L 234.864 157.407631 
L 238.77 157.885223 
L 242.676 161.558334 
L 246.582 160.72402 
L 250.488 161.71218 
L 254.394 163.029236 
L 258.3 160.523001 
L 262.206 164.31083 
L 266.112 165.321493 
L 270.018 166.991792 
L 273.924 164.646345 
L 277.83 165.41708 
L 281.736 165.339566 
L 285.642 166.736917 
L 289.548 168.174537 
L 293.454 168.480905 
L 297.36 168.844288 
L 301.266 167.861855 
L 305.172 168.493358 
L 309.078 167.799959 
L 312.984 169.238911 
L 316.89 169.826725 
L 320.796 170.977437 
L 324.702 170.447217 
L 328.608 171.649429 
L 332.514 171.771554 
L 336.42 172.293905 
L 340.326 171.870933 
L 344.232 172.873465 
L 348.138 173.347088 
L 352.044 172.675341 
L 355.95 174.896892 
L 359.856 174.766908 
L 363.762 175.314639 
L 367.668 175.309517 
L 371.574 177.236645 
L 375.48 176.924092 
L 379.386 177.455353 
L 383.292 177.139353 
L 387.198 177.797603 
L 391.104 177.802922 
L 395.01 178.726309 
L 398.916 179.460053 
L 402.822 179.405434 
L 406.728 179.844654 
L 410.634 180.344998 
L 414.54 181.106036 
L 418.446 181.31915 
L 422.352 181.825599 
L 426.258 182.180462 
L 430.164 182.16465 
L 434.07 183.02084 
L 437.976 183.179644 
L 441.882 183.534233 
L 445.788 183.884393 
L 449.694 184.335421 
L 453.6 184.68 
" clip-path="url(#p5557a1dcad)" style="fill: none; stroke: #2ca02c; stroke-width: 1.5; stroke-linecap: square"/>
   </g>
   <g id="line2d_32">
    <path d="M 66.906 47.290832 
L 70.812 61.885011 
L 74.718 79.503704 
L 78.624 80.768332 
L 82.53 90.975911 
L 86.436 93.524147 
L 90.342 94.508409 
L 94.248 97.409461 
L 98.154 109.263894 
L 102.06 109.900767 
L 105.966 116.83392 
L 109.872 121.013109 
L 113.778 110.440052 
L 117.684 120.65755 
L 121.59 113.554166 
L 125.496 115.41674 
L 129.402 126.52877 
L 133.308 126.483811 
L 137.214 120.179596 
L 141.12 124.734172 
L 145.026 123.015571 
L 148.932 130.251015 
L 152.838 130.067496 
L 156.744 130.082335 
L 160.65 135.301894 
L 164.556 134.215336 
L 168.462 135.577296 
L 172.368 140.345069 
L 176.274 134.382015 
L 180.18 139.948646 
L 184.086 147.183399 
L 187.992 139.140375 
L 191.898 139.921648 
L 195.804 144.820409 
L 199.71 142.463236 
L 203.616 144.188661 
L 207.522 145.692953 
L 211.428 142.743913 
L 215.334 147.229407 
L 219.24 147.57707 
L 223.146 148.231583 
L 227.052 150.70908 
L 230.958 147.80489 
L 234.864 150.267436 
L 238.77 153.059083 
L 242.676 151.218304 
L 246.582 153.68481 
L 250.488 155.972599 
L 254.394 154.647421 
L 258.3 156.202271 
L 262.206 154.235411 
L 266.112 157.403288 
L 270.018 158.94216 
L 273.924 157.924843 
L 277.83 157.836113 
L 281.736 162.659479 
L 285.642 159.53156 
L 289.548 159.849626 
L 293.454 160.904577 
L 297.36 159.697352 
L 301.266 163.840271 
L 305.172 162.071546 
L 309.078 164.840349 
L 312.984 163.933015 
L 316.89 165.273635 
L 320.796 165.211791 
L 324.702 167.307172 
L 328.608 169.107887 
L 332.514 169.852548 
L 336.42 168.5626 
L 340.326 169.941874 
L 344.232 170.577295 
L 348.138 171.338435 
L 352.044 170.741589 
L 355.95 172.064121 
L 359.856 173.584903 
L 363.762 173.129279 
L 367.668 173.467102 
L 371.574 173.60174 
L 375.48 174.295018 
L 379.386 174.546149 
L 383.292 175.673887 
L 387.198 176.578327 
L 391.104 176.14211 
L 395.01 177.219089 
L 398.916 177.556964 
L 402.822 178.393947 
L 406.728 178.689121 
L 410.634 179.328228 
L 414.54 179.69916 
L 418.446 180.033581 
L 422.352 180.26345 
L 426.258 181.319573 
L 430.164 181.467618 
L 434.07 181.957328 
L 437.976 182.752979 
L 441.882 183.073605 
L 445.788 183.745824 
L 449.694 184.182036 
L 453.6 184.68 
" clip-path="url(#p5557a1dcad)" style="fill: none; stroke: #d62728; stroke-width: 1.5; stroke-linecap: square"/>
   </g>
   <g id="patch_3">
    <path d="M 63 192.24 
L 63 25.92 
" style="fill: none; stroke: #000000; stroke-width: 0.8; stroke-linejoin: miter; stroke-linecap: square"/>
   </g>
   <g id="patch_4">
    <path d="M 453.6 192.24 
L 453.6 25.92 
" style="fill: none; stroke: #000000; stroke-width: 0.8; stroke-linejoin: miter; stroke-linecap: square"/>
   </g>
   <g id="patch_5">
    <path d="M 63 192.24 
L 453.6 192.24 
" style="fill: none; stroke: #000000; stroke-width: 0.8; stroke-linejoin: miter; stroke-linecap: square"/>
   </g>
   <g id="patch_6">
    <path d="M 63 25.92 
L 453.6 25.92 
" style="fill: none; stroke: #000000; stroke-width: 0.8; stroke-linejoin: miter; stroke-linecap: square"/>
   </g>
   <g id="legend_1">
    <g id="line2d_33">
     <path d="M 326.977298 43.42 
L 340.977298 43.42 
L 354.977298 43.42 
" style="fill: none; stroke: #1f77b4; stroke-width: 1.5; stroke-linecap: square"/>
    </g>
    <g id="text_17">
     <!-- Benchmark 1 -->
     <g transform="translate(366.177298 48.32) scale(0.14 -0.14)">
      <defs>
       <path id="CMSS17-42" d="M 570 4416 
L 570 0 
L 2163 0 
C 3034 0 3667 574 3667 1200 
C 3667 1685 3251 2176 2502 2317 
C 3334 2558 3501 3040 3501 3313 
C 3501 3883 2874 4416 1997 4416 
L 570 4416 
z
M 1088 2496 
L 1088 4059 
L 1824 4059 
C 2483 4059 3002 3724 3002 3306 
C 3002 2926 2592 2496 1766 2496 
L 1088 2496 
z
M 1088 357 
L 1088 2107 
L 1939 2107 
C 2630 2107 3162 1679 3162 1206 
C 3162 772 2694 357 1984 357 
L 1088 357 
z
" transform="scale(0.015625)"/>
       <path id="CMSS17-63" d="M 2464 2541 
C 2464 2585 2170 2714 2093 2739 
C 1882 2816 1613 2816 1542 2816 
C 710 2816 211 2093 211 1363 
C 211 595 768 -64 1517 -64 
C 1946 -64 2253 76 2502 242 
L 2464 664 
C 2189 453 1869 337 1523 337 
C 1024 337 698 774 698 1369 
C 698 1831 909 2414 1549 2414 
C 1901 2414 2099 2343 2394 2145 
L 2464 2541 
z
" transform="scale(0.015625)"/>
       <path id="CMSS17-68" d="M 2618 1891 
C 2618 2292 2522 2820 1798 2820 
C 1395 2820 1133 2623 947 2407 
L 947 4448 
L 474 4448 
L 474 32 
L 960 32 
L 960 1573 
C 960 1973 1114 2432 1549 2432 
C 2112 2432 2131 2056 2131 1839 
L 2131 32 
L 2618 32 
L 2618 1891 
z
" transform="scale(0.015625)"/>
       <path id="CMSS17-6d" d="M 4288 1877 
C 4288 2308 4179 2816 3462 2816 
C 2982 2816 2694 2516 2566 2331 
C 2451 2670 2182 2816 1798 2816 
C 1363 2816 1088 2568 941 2389 
L 941 2758 
L 474 2758 
L 474 0 
L 960 0 
L 960 1559 
C 960 1939 1101 2428 1555 2428 
C 2138 2428 2138 2016 2138 1829 
L 2138 0 
L 2624 0 
L 2624 1559 
C 2624 1939 2765 2428 3219 2428 
C 3802 2428 3802 2016 3802 1829 
L 3802 0 
L 4288 0 
L 4288 1877 
z
" transform="scale(0.015625)"/>
       <path id="CMSS17-6b" d="M 1696 1688 
L 2688 2739 
L 2074 2739 
L 954 1554 
L 954 4416 
L 480 4416 
L 480 0 
L 947 0 
L 947 892 
L 1376 1344 
L 2278 0 
L 2822 0 
L 1696 1688 
z
" transform="scale(0.015625)"/>
      </defs>
      <use xlink:href="#CMSS17-42" transform="scale(0.996264)"/>
      <use xlink:href="#CMSS17-65" transform="translate(62.33804 0) scale(0.996264)"/>
      <use xlink:href="#CMSS17-6e" transform="translate(103.976862 0) scale(0.996264)"/>
      <use xlink:href="#CMSS17-63" transform="translate(152.181805 0) scale(0.996264)"/>
      <use xlink:href="#CMSS17-68" transform="translate(193.820627 0) scale(0.996264)"/>
      <use xlink:href="#CMSS17-6d" transform="translate(242.025571 0) scale(0.996264)"/>
      <use xlink:href="#CMSS17-61" transform="translate(316.254825 0) scale(0.996264)"/>
      <use xlink:href="#CMSS17-72" transform="translate(358.574292 0) scale(0.996264)"/>
      <use xlink:href="#CMSS17-6b" transform="translate(390.484064 0) scale(0.996264)"/>
      <use xlink:href="#CMSS17-31" transform="translate(467.315666 0) scale(0.996264)"/>
     </g>
    </g>
    <g id="line2d_34">
     <path d="M 326.977298 62.932028 
L 340.977298 62.932028 
L 354.977298 62.932028 
" style="fill: none; stroke: #ff7f0e; stroke-width: 1.5; stroke-linecap: square"/>
    </g>
    <g id="text_18">
     <!-- Benchmark 2 -->
     <g transform="translate(366.177298 67.832028) scale(0.14 -0.14)">
      <use xlink:href="#CMSS17-42" transform="scale(0.996264)"/>
      <use xlink:href="#CMSS17-65" transform="translate(62.33804 0) scale(0.996264)"/>
      <use xlink:href="#CMSS17-6e" transform="translate(103.976862 0) scale(0.996264)"/>
      <use xlink:href="#CMSS17-63" transform="translate(152.181805 0) scale(0.996264)"/>
      <use xlink:href="#CMSS17-68" transform="translate(193.820627 0) scale(0.996264)"/>
      <use xlink:href="#CMSS17-6d" transform="translate(242.025571 0) scale(0.996264)"/>
      <use xlink:href="#CMSS17-61" transform="translate(316.254825 0) scale(0.996264)"/>
      <use xlink:href="#CMSS17-72" transform="translate(358.574292 0) scale(0.996264)"/>
      <use xlink:href="#CMSS17-6b" transform="translate(390.484064 0) scale(0.996264)"/>
      <use xlink:href="#CMSS17-32" transform="translate(467.315666 0) scale(0.996264)"/>
     </g>
    </g>
    <g id="line2d_35">
     <path d="M 326.977298 82.444057 
L 340.977298 82.444057 
L 354.977298 82.444057 
" style="fill: none; stroke: #2ca02c; stroke-width: 1.5; stroke-linecap: square"/>
    </g>
    <g id="text_19">
     <!-- Benchmark 3 -->
     <g transform="translate(366.177298 87.344057) scale(0.14 -0.14)">
      <use xlink:href="#CMSS17-42" transform="scale(0.996264)"/>
      <use xlink:href="#CMSS17-65" transform="translate(62.33804 0) scale(0.996264)"/>
      <use xlink:href="#CMSS17-6e" transform="translate(103.976862 0) scale(0.996264)"/>
      <use xlink:href="#CMSS17-63" transform="translate(152.181805 0) scale(0.996264)"/>
      <use xlink:href="#CMSS17-68" transform="translate(193.820627 0) scale(0.996264)"/>
      <use xlink:href="#CMSS17-6d" transform="translate(242.025571 0) scale(0.996264)"/>
      <use xlink:href="#CMSS17-61" transform="translate(316.254825 0) scale(0.996264)"/>
      <use xlink:href="#CMSS17-72" transform="translate(358.574292 0) scale(0.996264)"/>
      <use xlink:href="#CMSS17-6b" transform="translate(390.484064 0) scale(0.996264)"/>
      <use xlink:href="#CMSS17-33" transform="translate(467.315666 0) scale(0.996264)"/>
     </g>
    </g>
    <g id="line2d_36">
     <path d="M 326.977298 101.956085 
L 340.977298 101.956085 
L 354.977298 101.956085 
" style="fill: none; stroke: #d62728; stroke-width: 1.5; stroke-linecap: square"/>
    </g>
    <g id="text_20">
     <!-- Benchmark 4 -->
     <g transform="translate(366.177298 106.856085) scale(0.14 -0.14)">
      <use xlink:href="#CMSS17-42" transform="scale(0.996264)"/>
      <use xlink:href="#CMSS17-65" transform="translate(62.33804 0) scale(0.996264)"/>
      <use xlink:href="#CMSS17-6e" transform="translate(103.976862 0) scale(0.996264)"/>
      <use xlink:href="#CMSS17-63" transform="translate(152.181805 0) scale(0.996264)"/>
      <use xlink:href="#CMSS17-68" transform="translate(193.820627 0) scale(0.996264)"/>
      <use xlink:href="#CMSS17-6d" transform="translate(242.025571 0) scale(0.996264)"/>
      <use xlink:href="#CMSS17-61" transform="translate(316.254825 0) scale(0.996264)"/>
      <use xlink:href="#CMSS17-72" transform="translate(358.574292 0) scale(0.996264)"/>
      <use xlink:href="#CMSS17-6b" transform="translate(390.484064 0) scale(0.996264)"/>
      <use xlink:href="#CMSS17-34" transform="translate(467.315666 0) scale(0.996264)"/>
     </g>
    </g>
   </g>
  </g>
 </g>
 <defs>
  <clipPath id="p5557a1dcad">
   <rect x="63" y="25.92" width="390.6" height="166.32"/>
  </clipPath>
 </defs>
</svg>
